<?xml version="1.0" encoding="UTF-8"?>
<svg xmlns="http://www.w3.org/2000/svg" xmlns:xlink="http://www.w3.org/1999/xlink" width="0px" height="px" viewBox="0 0 40 31" version="1.1">
<g id="surface1">
<path style=" stroke:none;fill-rule:nonzero;fill:rgb(25.882353%,52.156863%,95.686275%);fill-opacity:1;" d="M 2.941406 30.257812 L 9.226562 30.257812 L 9.226562 14.800781 L 0.246094 7.984375 L 0.246094 27.53125 C 0.246094 29.035156 1.453125 30.257812 2.941406 30.257812 Z M 2.941406 30.257812 "/>
<path style=" stroke:none;fill-rule:nonzero;fill:rgb(20.392157%,65.882353%,32.54902%);fill-opacity:1;" d="M 30.773438 30.257812 L 37.058594 30.257812 C 38.546875 30.257812 39.753906 29.035156 39.753906 27.53125 L 39.753906 7.984375 L 30.773438 14.800781 Z M 30.773438 30.257812 "/>
<path style=" stroke:none;fill-rule:nonzero;fill:rgb(98.431373%,73.72549%,1.568627%);fill-opacity:1;" d="M 30.773438 2.984375 L 30.773438 14.800781 L 39.753906 7.984375 L 39.753906 4.347656 C 39.753906 0.976562 35.953125 -0.945312 33.289062 1.074219 Z M 30.773438 2.984375 "/>
<path style=" stroke:none;fill-rule:nonzero;fill:rgb(91.764706%,26.27451%,20.784314%);fill-opacity:1;" d="M 9.226562 14.800781 L 9.226562 2.984375 L 20 11.167969 L 30.773438 2.984375 L 30.773438 14.800781 L 20 22.984375 Z M 9.226562 14.800781 "/>
<path style=" stroke:none;fill-rule:nonzero;fill:rgb(77.254902%,13.333333%,12.156863%);fill-opacity:1;" d="M 0.246094 4.347656 L 0.246094 7.984375 L 9.226562 14.804688 L 9.226562 2.984375 L 6.710938 1.074219 C 4.046875 -0.945312 0.246094 0.976562 0.246094 4.347656 Z M 0.246094 4.347656 "/>
</g>
</svg>
