<?xml version="1.0" encoding="UTF-8"?>
<svg xmlns="http://www.w3.org/2000/svg" xmlns:xlink="http://www.w3.org/1999/xlink" width="0px" height="px" viewBox="0 0 1250 1250" version="1.1">
<g id="surface1">
<path style=" stroke:none;fill-rule:nonzero;fill:rgb(0%,40%,85.098039%);fill-opacity:1;" d="M 156.25 582.386719 L 156.25 667.613281 C 156.25 710.761719 121.273438 745.738281 78.125 745.738281 C 34.976562 745.738281 0 710.761719 0 667.613281 L 0 582.386719 C 0 539.238281 34.976562 504.261719 78.125 504.261719 C 121.273438 504.261719 156.25 539.238281 156.25 582.386719 Z M 156.25 582.386719 "/>
<path style=" stroke:none;fill-rule:nonzero;fill:rgb(25.882353%,52.156863%,95.686275%);fill-opacity:1;" d="M 1093.78125 584.605469 C 1093.761719 583.867188 1093.75 583.125 1093.75 582.386719 C 1093.75 539.238281 1128.726562 504.261719 1171.875 504.261719 C 1215.023438 504.261719 1250 539.238281 1250 582.386719 C 1250 583.128906 1249.992188 583.871094 1249.96875 584.605469 L 1250 584.605469 L 1250 669.835938 L 1249.96875 669.835938 C 1248.796875 711.953125 1214.28125 745.738281 1171.875 745.738281 C 1129.46875 745.738281 1094.957031 711.953125 1093.78125 669.835938 L 1093.75 669.835938 L 1093.75 584.605469 Z M 1093.78125 584.605469 "/>
<path style=" stroke:none;fill-rule:nonzero;fill:rgb(91.764706%,26.27451%,20.784314%);fill-opacity:1;" d="M 426.136719 838.070312 L 426.136719 923.296875 C 426.136719 966.441406 391.160156 1001.421875 348.011719 1001.421875 C 304.859375 1001.421875 269.886719 966.441406 269.886719 923.296875 L 269.886719 838.066406 C 269.886719 794.921875 304.863281 759.941406 348.011719 759.941406 C 391.15625 759.941406 426.136719 794.921875 426.136719 838.066406 Z M 426.136719 326.703125 L 426.136719 605.46875 L 426.117188 605.46875 C 425.171875 647.796875 390.5625 681.820312 348.011719 681.820312 C 305.457031 681.820312 270.851562 647.796875 269.90625 605.46875 L 269.886719 605.46875 L 269.886719 326.703125 C 269.886719 283.558594 304.863281 248.578125 348.011719 248.578125 C 391.15625 248.578125 426.136719 283.558594 426.136719 326.703125 Z M 426.136719 326.703125 "/>
<path style=" stroke:none;fill-rule:nonzero;fill:rgb(20.392157%,65.882353%,32.54902%);fill-opacity:1;" d="M 823.863281 411.929688 C 823.863281 455.078125 858.839844 490.054688 901.988281 490.054688 C 945.140625 490.054688 980.113281 455.078125 980.113281 411.929688 L 980.113281 326.703125 C 980.113281 283.558594 945.136719 248.578125 901.988281 248.578125 C 858.84375 248.578125 823.863281 283.558594 823.863281 326.703125 Z M 823.863281 411.929688 "/>
<path style=" stroke:none;fill-rule:nonzero;fill:rgb(98.039216%,72.54902%,3.137255%);fill-opacity:1;" d="M 546.875 163.355469 C 546.875 206.5 581.851562 241.480469 625 241.480469 C 668.148438 241.480469 703.125 206.5 703.125 163.355469 L 703.125 78.125 C 703.125 34.976562 668.148438 0 625 0 C 581.851562 0 546.875 34.976562 546.875 78.125 Z M 546.875 1086.644531 C 546.875 1043.5 581.851562 1008.519531 625 1008.519531 C 668.148438 1008.519531 703.125 1043.5 703.125 1086.644531 L 703.125 1171.875 C 703.125 1215.023438 668.148438 1250 625 1250 C 581.851562 1250 546.875 1215.023438 546.875 1171.875 Z M 546.875 1086.644531 "/>
<path style=" stroke:none;fill-rule:nonzero;fill:rgb(20.392157%,65.882353%,32.54902%);fill-opacity:1;" d="M 823.863281 646.304688 C 823.863281 603.160156 858.839844 568.179688 901.988281 568.179688 C 945.140625 568.179688 980.113281 603.160156 980.113281 646.304688 L 980.113281 923.296875 C 980.113281 966.441406 945.136719 1001.421875 901.988281 1001.421875 C 858.84375 1001.421875 823.863281 966.441406 823.863281 923.296875 Z M 823.863281 646.304688 "/>
<path style=" stroke:none;fill-rule:nonzero;fill:rgb(98.039216%,72.54902%,3.137255%);fill-opacity:1;" d="M 703.125 397.730469 L 703.125 852.269531 C 703.125 895.421875 668.148438 930.394531 625 930.394531 C 581.851562 930.394531 546.875 895.421875 546.875 852.269531 L 546.875 397.730469 C 546.875 354.578125 581.851562 319.605469 625 319.605469 C 668.148438 319.605469 703.125 354.578125 703.125 397.730469 Z M 703.125 397.730469 "/>
</g>
</svg>
