<?xml version="1.0" encoding="UTF-8"?>
<svg xmlns="http://www.w3.org/2000/svg" xmlns:xlink="http://www.w3.org/1999/xlink" width="0px" height="px" viewBox="0 0 41 38" version="1.1">
<g id="surface1">
<path style=" stroke:none;fill-rule:nonzero;fill:rgb(23.529412%,54.509804%,85.098039%);fill-opacity:1;" d="M 14.03125 4.917969 C 14.425781 3.886719 14.960938 2.941406 15.761719 2.175781 C 18.957031 -0.945312 24.242188 -0.160156 26.410156 3.757812 C 28.042969 6.730469 29.769531 9.632812 31.449219 12.574219 L 39.863281 27.230469 C 42.195312 31.328125 39.667969 36.503906 35.039062 37.203125 C 32.199219 37.628906 29.542969 36.324219 28.074219 33.777344 L 20.671875 20.914062 C 20.621094 20.816406 20.554688 20.734375 20.492188 20.652344 C 20.230469 20.441406 20.117188 20.128906 19.953125 19.851562 L 16.640625 14.105469 L 14.507812 10.402344 C 13.878906 9.3125 13.566406 8.066406 13.609375 6.808594 C 13.65625 6.15625 13.738281 5.503906 14.03125 4.917969 "/>
<path style=" stroke:none;fill-rule:nonzero;fill:rgb(98.039216%,73.72549%,1.568627%);fill-opacity:1;" d="M 14.03125 4.917969 C 13.886719 5.503906 13.753906 6.09375 13.722656 6.710938 C 13.675781 8.082031 14.015625 9.355469 14.703125 10.546875 L 20.066406 19.835938 L 20.523438 20.652344 L 17.570312 25.730469 L 13.445312 32.847656 C 13.378906 32.847656 13.363281 32.8125 13.347656 32.765625 C 13.332031 32.632812 13.378906 32.519531 13.414062 32.390625 C 14.082031 29.941406 13.527344 27.769531 11.847656 25.910156 C 10.820312 24.78125 9.515625 24.144531 8.015625 23.933594 C 6.058594 23.65625 4.332031 24.164062 2.78125 25.386719 C 2.503906 25.597656 2.324219 25.910156 1.996094 26.070312 C 1.933594 26.070312 1.898438 26.039062 1.882812 25.992188 L 4.214844 21.925781 L 13.917969 5.097656 C 13.949219 5.03125 14 4.980469 14.03125 4.917969 "/>
<path style=" stroke:none;fill-rule:nonzero;fill:rgb(20.392157%,65.882353%,32.156863%);fill-opacity:1;" d="M 1.949219 26.039062 L 2.878906 25.207031 C 6.839844 22.074219 12.792969 24.34375 13.65625 29.304688 C 13.871094 30.496094 13.753906 31.640625 13.394531 32.78125 C 13.378906 32.878906 13.363281 32.960938 13.332031 33.058594 C 13.183594 33.320312 13.054688 33.597656 12.890625 33.859375 C 11.441406 36.257812 9.304688 37.453125 6.496094 37.273438 C 3.285156 37.042969 0.757812 34.625 0.316406 31.425781 C 0.105469 29.875 0.414062 28.421875 1.214844 27.085938 C 1.378906 26.789062 1.574219 26.53125 1.753906 26.234375 C 1.835938 26.171875 1.800781 26.039062 1.949219 26.039062 "/>
<path style=" stroke:none;fill-rule:nonzero;fill:rgb(98.039216%,73.72549%,1.568627%);fill-opacity:1;" d="M 1.949219 26.039062 C 1.882812 26.105469 1.882812 26.21875 1.769531 26.234375 C 1.753906 26.121094 1.820312 26.058594 1.882812 25.976562 L 1.949219 26.039062 "/>
<path style=" stroke:none;fill-rule:nonzero;fill:rgb(88.235294%,75.294118%,14.509804%);fill-opacity:1;" d="M 13.332031 33.058594 C 13.265625 32.945312 13.332031 32.863281 13.398438 32.78125 L 13.460938 32.847656 L 13.332031 33.058594 "/>
</g>
</svg>
