<?xml version="1.0" encoding="UTF-8"?>
<svg xmlns="http://www.w3.org/2000/svg" xmlns:xlink="http://www.w3.org/1999/xlink" width="0px" height="px" viewBox="0 0 41 41" version="1.1">
<g id="surface1">
<path style=" stroke:none;fill-rule:nonzero;fill:rgb(98.431373%,73.333333%,1.960784%);fill-opacity:1;" d="M 10.375 9.449219 C 15.964844 9.449219 20.5 13.984375 20.5 19.574219 L 20.5 20.5 L 1.179688 20.5 C 0.667969 20.5 0.253906 20.082031 0.253906 19.574219 C 0.253906 13.984375 4.789062 9.449219 10.375 9.449219 Z M 10.375 9.449219 "/>
<path style=" stroke:none;fill-rule:nonzero;fill:rgb(91.372549%,26.27451%,20.784314%);fill-opacity:1;" d="M 31.550781 10.375 C 31.550781 15.964844 27.015625 20.5 21.425781 20.5 L 20.5 20.5 L 20.5 1.179688 C 20.5 0.667969 20.917969 0.253906 21.425781 0.253906 C 27.015625 0.253906 31.550781 4.789062 31.550781 10.375 Z M 31.550781 10.375 "/>
<path style=" stroke:none;fill-rule:nonzero;fill:rgb(25.882353%,52.156863%,95.686275%);fill-opacity:1;" d="M 30.625 31.550781 C 25.035156 31.550781 20.5 27.015625 20.5 21.425781 L 20.5 20.5 L 39.820312 20.5 C 40.332031 20.5 40.746094 20.917969 40.746094 21.425781 C 40.746094 27.015625 36.210938 31.550781 30.625 31.550781 Z M 30.625 31.550781 "/>
<path style=" stroke:none;fill-rule:nonzero;fill:rgb(5.882353%,61.568627%,34.509804%);fill-opacity:1;" d="M 9.449219 30.625 C 9.449219 25.035156 13.984375 20.5 19.574219 20.5 L 20.5 20.5 L 20.5 39.820312 C 20.5 40.332031 20.082031 40.746094 19.574219 40.746094 C 13.984375 40.746094 9.449219 36.210938 9.449219 30.625 Z M 9.449219 30.625 "/>
</g>
</svg>
