<?xml version="1.0" encoding="UTF-8"?>
<svg xmlns="http://www.w3.org/2000/svg" xmlns:xlink="http://www.w3.org/1999/xlink" width="0px" height="px" viewBox="0 0 1250 1250" version="1.1">
<g id="surface1">
<path style=" stroke:none;fill-rule:evenodd;fill:rgb(100%,77.254902%,9.019608%);fill-opacity:1;" d="M 258.046875 0 C 211.355469 0 173.5 37.835938 173.5 84.855469 L 173.5 1250 L 540.347656 1080.6875 L 907.1875 1250 L 907.1875 84.855469 C 907.1875 37.835938 945.042969 0 991.957031 0 Z M 258.046875 0 "/>
<path style=" stroke:none;fill-rule:evenodd;fill:rgb(93.333333%,66.27451%,5.882353%);fill-opacity:1;" d="M 1076.5 84.855469 C 1076.5 37.992188 1038.851562 0 991.953125 0 C 945.039062 0 907.1875 37.835938 907.1875 84.855469 L 907.1875 993.550781 L 1076.5 1078.207031 Z M 1076.5 84.855469 "/>
<path style=" stroke:none;fill-rule:evenodd;fill:rgb(100%,100%,100%);fill-opacity:1;" d="M 705.71875 561.808594 L 544.28125 561.808594 L 544.28125 627.226562 L 637.207031 627.226562 C 628.546875 668.78125 592.320312 692.640625 544.28125 692.640625 C 487.582031 692.640625 441.910156 648.003906 441.910156 592.589844 C 441.910156 537.183594 487.582031 492.542969 544.28125 492.542969 C 568.695312 492.542969 590.746094 501.007812 608.070312 514.863281 L 658.46875 465.609375 C 627.757812 439.441406 588.382812 423.28125 544.28125 423.28125 C 448.207031 423.28125 371.03125 498.703125 371.03125 592.589844 C 371.03125 686.484375 448.207031 761.90625 544.28125 761.90625 C 630.90625 761.90625 709.660156 700.335938 709.660156 592.589844 C 709.660156 582.585938 708.082031 571.8125 705.71875 561.808594 Z M 705.71875 561.808594 "/>
</g>
</svg>
