<?xml version="1.0" encoding="UTF-8"?>
<svg xmlns="http://www.w3.org/2000/svg" xmlns:xlink="http://www.w3.org/1999/xlink" width="0px" height="px" viewBox="0 0 75 75" version="1.1">
<g id="surface1">
<path style=" stroke:none;fill-rule:nonzero;fill:rgb(11.764706%,53.333333%,89.803922%);fill-opacity:1;" d="M 51.5 26.550781 C 53.449219 26.550781 55.050781 24.949219 55.050781 23 C 55.050781 21.050781 53.449219 19.449219 51.5 19.449219 C 49.550781 19.449219 47.949219 21.050781 47.949219 23 C 47.949219 24.949219 49.550781 26.550781 51.5 26.550781 Z M 26.300781 25.449219 L 37.199219 14.550781 C 38.050781 13.699219 39.199219 13.199219 40.449219 13.199219 L 56.648438 13.199219 C 59.199219 13.199219 61.25 15.25 61.25 17.800781 C 61.25 17.800781 61.25 17.800781 61.25 17.851562 L 61.25 34 C 61.25 35.25 60.75 36.449219 59.898438 37.25 L 49.050781 48.148438 Z M 26.300781 25.449219 "/>
<path style=" stroke:none;fill-rule:nonzero;fill:rgb(29.803922%,68.627451%,31.372549%);fill-opacity:1;" d="M 49.050781 48.148438 L 35.601562 61.601562 C 34.75 62.449219 33.601562 62.949219 32.300781 62.949219 C 31 62.949219 29.851562 62.398438 29.050781 61.601562 L 12.851562 45.449219 C 12 44.601562 11.5 43.449219 11.5 42.199219 C 11.5 40.898438 12.050781 39.75 12.851562 38.898438 L 26.300781 25.449219 Z M 49.050781 48.148438 "/>
<path style=" stroke:none;fill-rule:nonzero;fill:rgb(98.431373%,75.294118%,17.647059%);fill-opacity:1;" d="M 20.699219 53.300781 L 12.851562 45.449219 C 12 44.601562 11.5 43.449219 11.5 42.199219 C 11.5 40.898438 12.050781 39.75 12.851562 38.898438 L 26.300781 25.449219 L 37.398438 36.550781 Z M 20.699219 53.300781 "/>
<path style=" stroke:none;fill-rule:nonzero;fill:rgb(89.803922%,22.352941%,20.784314%);fill-opacity:1;" d="M 59.699219 14.300781 C 58.851562 13.550781 57.800781 13.199219 56.648438 13.199219 L 40.5 13.199219 C 39.25 13.199219 38.050781 13.699219 37.25 14.550781 L 26.300781 25.449219 L 37.398438 36.550781 L 48.75 25.199219 C 48.199219 24.550781 47.949219 23.75 47.949219 22.949219 C 47.949219 21 49.550781 19.398438 51.5 19.398438 C 52.351562 19.398438 53.148438 19.699219 53.75 20.199219 Z M 59.699219 14.300781 "/>
<path style=" stroke:none;fill-rule:nonzero;fill:rgb(25.882353%,52.156863%,95.686275%);fill-opacity:1;" d="M 44.648438 37.851562 C 44.648438 41.828125 41.425781 45.050781 37.449219 45.050781 C 33.472656 45.050781 30.25 41.828125 30.25 37.851562 C 30.25 33.875 33.472656 30.648438 37.449219 30.648438 C 41.425781 30.648438 44.648438 33.875 44.648438 37.851562 Z M 44.648438 37.851562 "/>
<path style=" stroke:none;fill-rule:nonzero;fill:rgb(100%,100%,100%);fill-opacity:1;" d="M 47.25 35.699219 L 37.648438 35.699219 L 37.648438 39.800781 L 43.199219 39.800781 C 42.699219 42.398438 40.550781 43.898438 37.648438 43.898438 C 34.300781 43.898438 31.550781 41.101562 31.550781 37.601562 C 31.550781 34.101562 34.25 31.300781 37.648438 31.300781 C 39.101562 31.300781 40.398438 31.851562 41.449219 32.699219 L 44.449219 29.601562 C 42.648438 28 40.300781 27 37.648438 27 C 31.949219 27 27.351562 31.75 27.351562 37.648438 C 27.351562 43.550781 31.949219 48.300781 37.648438 48.300781 C 42.800781 48.300781 47.5 44.398438 47.5 37.648438 C 47.5 37 47.398438 36.351562 47.25 35.699219 Z M 47.25 35.699219 "/>
</g>
</svg>
