<?xml version="1.0" encoding="UTF-8"?>
<svg xmlns="http://www.w3.org/2000/svg" xmlns:xlink="http://www.w3.org/1999/xlink" width="0px" height="px" viewBox="0 0 240 250" version="1.1">
<g id="surface1">
<path style=" stroke:none;fill-rule:nonzero;fill:rgb(0%,67.45098%,27.843137%);fill-opacity:1;" d="M 54.46875 134.839844 L 54.46875 53.660156 L 18.921875 53.660156 C 8.460938 53.660156 0 62.152344 0 72.59375 L 0 240.402344 C 0 248.847656 10.210938 253.042969 16.171875 247.097656 L 55.269531 208.082031 L 166.609375 208.082031 C 177.070312 208.082031 185.53125 199.636719 185.53125 189.195312 L 185.53125 153.726562 L 73.441406 153.726562 C 62.980469 153.726562 54.46875 145.28125 54.46875 134.839844 Z M 54.46875 134.839844 "/>
<path style=" stroke:none;fill-rule:nonzero;fill:rgb(35.686275%,72.54902%,45.490196%);fill-opacity:1;" d="M 221.078125 0.105469 L 73.441406 0.105469 C 62.980469 0.105469 54.519531 8.546875 54.519531 18.988281 L 54.519531 53.660156 L 166.609375 53.660156 C 177.070312 53.660156 185.53125 62.101562 185.53125 72.542969 L 185.53125 153.675781 L 221.078125 153.675781 C 231.539062 153.675781 240 145.234375 240 134.792969 L 240 18.988281 C 240 8.546875 231.539062 0.105469 221.078125 0.105469 Z M 221.078125 0.105469 "/>
<path style=" stroke:none;fill-rule:nonzero;fill:rgb(0%,51.372549%,17.647059%);fill-opacity:1;" d="M 166.609375 53.660156 L 54.46875 53.660156 L 54.46875 134.792969 C 54.46875 145.234375 62.929688 153.675781 73.390625 153.675781 L 185.480469 153.675781 L 185.480469 72.59375 C 185.53125 62.152344 177.070312 53.660156 166.609375 53.660156 Z M 166.609375 53.660156 "/>
</g>
</svg>
