<?xml version="1.0" encoding="UTF-8"?>
<svg xmlns="http://www.w3.org/2000/svg" xmlns:xlink="http://www.w3.org/1999/xlink" width="0px" height="px" viewBox="0 0 1369 1584" version="1.1">
<defs>
<filter id="alpha" filterUnits="objectBoundingBox" x="0%" y="0%" width="100%" height="100%">
  <feColorMatrix type="matrix" in="SourceGraphic" values="0 0 0 0 1 0 0 0 0 1 0 0 0 0 1 0 0 0 1 0"/>
</filter>
<mask id="mask0">
  <g filter="url(#alpha)">
<rect x="0" y="0" width="1369" height="1584" style="fill:rgb(0%,0%,0%);fill-opacity:0.2;stroke:none;"/>
  </g>
</mask>
<linearGradient id="linear0" gradientUnits="userSpaceOnUse" x1="1385.269" y1="1856.731" x2="2323.1304" y2="918.8698" gradientTransform="matrix(0.5,0,0,-0.499842,0.025,1584.499842)">
<stop offset="0" style="stop-color:rgb(14.901961%,19.607843%,21.960784%);stop-opacity:1;"/>
<stop offset="1" style="stop-color:rgb(0%,0%,0%);stop-opacity:0;"/>
</linearGradient>
<clipPath id="clip1">
  <rect x="0" y="0" width="1369" height="1584"/>
</clipPath>
<g id="surface5" clip-path="url(#clip1)">
<path style=" stroke:none;fill-rule:nonzero;fill:url(#linear0);" d="M 1026.324219 503.992188 L 828.273438 701.976562 L 630.226562 503.992188 L 342.125 792 L 959.523438 1409.207031 C 1167.324219 1245.105469 1308.023438 1043.121094 1353.175781 830.738281 Z M 1026.324219 503.992188 "/>
</g>
<mask id="mask1">
  <g filter="url(#alpha)">
<rect x="0" y="0" width="1369" height="1584" style="fill:rgb(0%,0%,0%);fill-opacity:0.4;stroke:none;"/>
  </g>
</mask>
<clipPath id="clip2">
  <rect x="0" y="0" width="1369" height="1584"/>
</clipPath>
<g id="surface8" clip-path="url(#clip2)">
<path style=" stroke:none;fill-rule:nonzero;fill:rgb(100%,100%,100%);fill-opacity:1;" d="M 342.125 503.992188 L 630.226562 503.992188 L 630.226562 512.988281 L 342.125 512.988281 Z M 738.273438 503.992188 L 1026.375 503.992188 L 1026.375 512.988281 L 738.273438 512.988281 Z M 738.273438 503.992188 "/>
</g>
<mask id="mask2">
  <g filter="url(#alpha)">
<rect x="0" y="0" width="1369" height="1584" style="fill:rgb(0%,0%,0%);fill-opacity:0.2;stroke:none;"/>
  </g>
</mask>
<clipPath id="clip3">
  <rect x="0" y="0" width="1369" height="1584"/>
</clipPath>
<g id="surface11" clip-path="url(#clip3)">
<path style=" stroke:none;fill-rule:nonzero;fill:rgb(14.901961%,19.607843%,21.960784%);fill-opacity:1;" d="M 900.324219 954 L 900.324219 962.996094 C 970.976562 962.996094 1026.375 872.972656 1026.375 783.003906 L 1026.375 774.003906 C 1026.324219 863.976562 970.976562 954 900.324219 954 Z M 900.324219 792 L 738.273438 792 L 738.273438 800.996094 L 900.324219 800.996094 Z M 504.175781 954 L 512.726562 962.546875 C 579.273438 955.699219 630.226562 869.324219 630.226562 783.003906 L 630.226562 774.003906 C 630.226562 863.976562 574.875 954 504.175781 954 Z M 504.175781 792 L 342.125 792 L 342.125 800.996094 L 504.175781 800.996094 Z M 504.175781 792 "/>
</g>
<mask id="mask3">
  <g filter="url(#alpha)">
<rect x="0" y="0" width="1369" height="1584" style="fill:rgb(0%,0%,0%);fill-opacity:0.2;stroke:none;"/>
  </g>
</mask>
<clipPath id="clip4">
  <rect x="0" y="0" width="1369" height="1584"/>
</clipPath>
<g id="surface14" clip-path="url(#clip4)">
<path style=" stroke:none;fill-rule:nonzero;fill:rgb(100%,100%,100%);fill-opacity:1;" d="M 684.226562 8.996094 C 1062.074219 8.996094 1368.425781 315.25 1368.425781 692.980469 L 1368.773438 692.980469 C 1368.773438 690.03125 1368.976562 686.933594 1368.976562 683.984375 L 1368.425781 683.984375 C 1368.425781 306.253906 1062.074219 0 684.226562 0 C 306.375 0 0.0234375 306.253906 0.0234375 683.984375 C 0.0234375 685.433594 0.125 686.785156 0.125 688.234375 C 2.726562 312.652344 307.925781 8.996094 684.226562 8.996094 Z M 684.226562 8.996094 "/>
</g>
<mask id="mask4">
  <g filter="url(#alpha)">
<rect x="0" y="0" width="1369" height="1584" style="fill:rgb(0%,0%,0%);fill-opacity:0.2;stroke:none;"/>
  </g>
</mask>
<clipPath id="clip5">
  <rect x="0" y="0" width="1369" height="1584"/>
</clipPath>
<g id="surface17" clip-path="url(#clip5)">
<path style=" stroke:none;fill-rule:nonzero;fill:rgb(14.901961%,19.607843%,21.960784%);fill-opacity:1;" d="M 684.226562 1331.980469 L 684.226562 1322.980469 C 327.625 1322.980469 2.726562 1035.171875 0.125 679.234375 C 0.125 680.835938 0.0234375 682.382812 0.0234375 683.984375 C 0.0234375 1041.820312 326.273438 1331.980469 684.226562 1331.980469 Z M 1368.425781 683.984375 C 1363.824219 1030.773438 1096.375 1366.019531 684.226562 1574.953125 L 684.226562 1583.949219 C 1099.976562 1373.214844 1368.425781 1034.023438 1368.425781 683.984375 Z M 1368.425781 683.984375 "/>
</g>
</defs>
<g id="surface1">
<path style=" stroke:none;fill-rule:nonzero;fill:rgb(5.882353%,61.568627%,34.509804%);fill-opacity:1;" d="M 1368.976562 683.984375 C 1368.976562 306.253906 1062.074219 0 684.226562 0 C 306.375 0 0.0234375 306.253906 0.0234375 683.984375 C 0.0234375 1041.820312 326.273438 1331.980469 684.226562 1331.980469 L 684.226562 1584 C 1099.976562 1373.214844 1368.976562 1034.023438 1368.976562 683.984375 Z M 1368.976562 683.984375 "/>
<use xlink:href="#surface5" mask="url(#mask0)"/>
<path style=" stroke:none;fill-rule:nonzero;fill:rgb(93.333333%,93.333333%,93.333333%);fill-opacity:1;" d="M 738.273438 503.992188 L 738.273438 792 L 900.324219 792 L 900.324219 954 C 970.976562 954 1026.375 863.976562 1026.375 774.003906 L 1026.375 503.992188 Z M 738.273438 503.992188 "/>
<path style=" stroke:none;fill-rule:nonzero;fill:rgb(93.333333%,93.333333%,93.333333%);fill-opacity:1;" d="M 342.125 503.992188 L 342.125 792 L 504.175781 792 L 504.175781 954 C 574.824219 954 630.226562 863.976562 630.226562 774.003906 L 630.226562 503.992188 Z M 342.125 503.992188 "/>
<use xlink:href="#surface8" mask="url(#mask1)"/>
<use xlink:href="#surface11" mask="url(#mask2)"/>
<use xlink:href="#surface14" mask="url(#mask3)"/>
<use xlink:href="#surface17" mask="url(#mask4)"/>
</g>
</svg>
