<?xml version="1.0" encoding="UTF-8"?>
<svg xmlns="http://www.w3.org/2000/svg" xmlns:xlink="http://www.w3.org/1999/xlink" width="0px" height="px" viewBox="0 0 41 41" version="1.1">
<g id="surface1">
<path style=" stroke:none;fill-rule:evenodd;fill:rgb(90.196078%,90.196078%,90.196078%);fill-opacity:1;" d="M 22.90625 40.746094 L 11.515625 7.84375 L 38.28125 7.84375 C 39.480469 7.84375 40.746094 9.300781 40.746094 10.058594 L 40.746094 38.46875 C 40.746094 39.355469 39.480469 40.746094 38.59375 40.746094 Z M 22.90625 40.746094 "/>
<path style=" stroke:none;fill-rule:evenodd;fill:rgb(50.196078%,50.196078%,50.196078%);fill-opacity:1;" d="M 31.636719 25.308594 C 32.648438 26.511719 34.167969 28.410156 36.191406 30.242188 L 35.050781 31.445312 C 33.089844 29.546875 31.824219 28.09375 30.625 26.699219 C 29.992188 27.460938 29.421875 28.28125 28.03125 29.421875 L 27.460938 27.714844 C 28.28125 26.890625 28.789062 26.382812 29.675781 25.371094 C 28.535156 24.421875 27.648438 22.90625 27.015625 21.890625 L 28.28125 21.007812 C 28.976562 22.019531 29.609375 22.839844 30.625 23.980469 C 31.636719 22.460938 32.710938 20.625 33.28125 19.359375 L 24.167969 19.359375 L 24.167969 17.84375 L 29.800781 17.84375 L 29.800781 15.4375 L 31.320312 15.4375 L 31.320312 17.84375 L 37.648438 17.84375 L 37.648438 19.359375 L 35.050781 19.359375 C 34.546875 20.5625 32.964844 23.917969 31.636719 25.308594 Z M 31.636719 25.308594 "/>
<path style=" stroke:none;fill-rule:evenodd;fill:rgb(31.764706%,55.686275%,97.254902%);fill-opacity:1;" d="M 18.726562 0.253906 L 29.609375 33.15625 L 2.71875 33.15625 C 1.519531 33.15625 0.253906 31.699219 0.253906 30.941406 L 0.253906 2.53125 C 0.253906 1.644531 1.519531 0.253906 2.40625 0.253906 Z M 18.726562 0.253906 "/>
<path style=" stroke:none;fill-rule:evenodd;fill:rgb(100%,100%,100%);fill-opacity:1;" d="M 18.285156 15.882812 L 12.148438 15.945312 L 12.148438 17.464844 L 16.515625 17.464844 C 16.132812 19.425781 14.617188 21.007812 12.148438 21.132812 C 9.554688 21.132812 7.59375 18.664062 7.59375 16.703125 C 7.59375 14.046875 9.742188 12.085938 12.148438 12.085938 C 13.539062 12.085938 14.425781 12.65625 15.3125 13.414062 L 16.578125 12.273438 C 15.753906 11.453125 14.363281 10.375 12.148438 10.375 C 9.046875 10.375 5.949219 13.035156 5.949219 16.703125 C 5.949219 20.375 8.859375 22.90625 12.148438 22.777344 C 16.070312 22.777344 18.285156 19.425781 18.285156 17.652344 Z M 18.285156 15.882812 "/>
<path style=" stroke:none;fill-rule:evenodd;fill:rgb(22.745098%,35.686275%,73.72549%);fill-opacity:1;" d="M 20.246094 33.15625 L 22.90625 40.746094 L 29.609375 33.15625 Z M 20.246094 33.15625 "/>
</g>
</svg>
