<?xml version="1.0" encoding="UTF-8"?>
<svg xmlns="http://www.w3.org/2000/svg" xmlns:xlink="http://www.w3.org/1999/xlink" width="0px" height="px" viewBox="0 0 30 41" version="1.1">
<g id="surface1">
<path style=" stroke:none;fill-rule:evenodd;fill:rgb(32.941176%,55.294118%,96.470588%);fill-opacity:1;" d="M 18.558594 0.253906 L 29.746094 11.390625 L 29.746094 38.214844 C 29.746094 38.886719 29.480469 39.53125 29.003906 40.007812 C 28.527344 40.480469 27.878906 40.75 27.203125 40.746094 L 2.796875 40.746094 C 2.121094 40.75 1.472656 40.480469 0.996094 40.007812 C 0.519531 39.53125 0.253906 38.886719 0.253906 38.214844 L 0.253906 2.785156 C 0.253906 2.113281 0.519531 1.46875 0.996094 0.992188 C 1.472656 0.519531 2.121094 0.25 2.796875 0.253906 Z M 18.558594 0.253906 "/>
<path style=" stroke:none;fill-rule:evenodd;fill:rgb(100%,100%,100%);fill-opacity:1;" d="M 7.371094 20.5 L 22.628906 20.5 L 22.628906 22.019531 L 7.371094 22.019531 Z M 7.371094 24.042969 L 22.628906 24.042969 L 22.628906 25.5625 L 7.371094 25.5625 Z M 7.371094 28.09375 L 22.628906 28.09375 L 22.628906 29.609375 L 7.371094 29.609375 Z M 7.371094 31.636719 L 18.050781 31.636719 L 18.050781 33.15625 L 7.371094 33.15625 Z M 7.371094 31.636719 "/>
<path style=" stroke:none;fill-rule:evenodd;fill:rgb(67.058824%,81.568627%,98.431373%);fill-opacity:1;" d="M 18.558594 0.253906 L 29.746094 11.390625 L 21.101562 11.390625 C 19.691406 11.390625 18.558594 10.132812 18.558594 8.730469 Z M 18.558594 0.253906 "/>
<path style=" stroke:none;fill-rule:evenodd;fill:rgb(24.313725%,35.686275%,72.54902%);fill-opacity:1;" d="M 20.972656 11.390625 L 29.746094 14.996094 L 29.746094 11.390625 Z M 20.972656 11.390625 "/>
</g>
</svg>
