<?xml version="1.0" encoding="UTF-8"?>
<svg xmlns="http://www.w3.org/2000/svg" xmlns:xlink="http://www.w3.org/1999/xlink" width="0px" height="px" viewBox="0 0 1250 1250" version="1.1">
<g id="surface1">
<path style=" stroke:none;fill-rule:evenodd;fill:rgb(9.803922%,40.392157%,82.352941%);fill-opacity:1;" d="M 428.785156 53.527344 C 428.785156 23.964844 452.75 0 482.3125 0 L 771.402344 0 C 800.96875 0 824.929688 23.960938 824.929688 53.527344 L 824.929688 342.613281 C 824.929688 372.179688 800.96875 396.144531 771.402344 396.144531 L 482.3125 396.144531 C 452.75 396.144531 428.785156 372.183594 428.785156 342.617188 Z M 525.148438 91.003906 L 525.148438 291.753906 L 725.894531 291.753906 L 725.894531 91.007812 Z M 424.769531 1250 C 369.332031 1250 324.394531 1205.0625 324.394531 1149.625 C 324.394531 1094.1875 369.332031 1049.25 424.769531 1049.25 C 480.203125 1049.25 525.144531 1094.1875 525.144531 1149.625 C 525.144531 1205.0625 480.203125 1250 424.769531 1250 Z M 826.269531 1250 C 770.832031 1250 725.894531 1205.0625 725.894531 1149.625 C 725.894531 1094.1875 770.832031 1049.25 826.269531 1049.25 C 881.707031 1049.25 926.644531 1094.1875 926.644531 1149.625 C 926.644531 1205.0625 881.703125 1250 826.269531 1250 Z M 826.269531 1250 "/>
<path style=" stroke:none;fill-rule:evenodd;fill:rgb(25.882353%,52.156863%,95.686275%);fill-opacity:1;" d="M 329.75 232.867188 L 923.96875 232.867188 C 977.183594 232.867188 1020.328125 276.011719 1020.328125 329.226562 L 1020.328125 1049.25 C 1020.328125 1102.46875 977.183594 1145.609375 923.96875 1145.609375 L 329.75 1145.609375 C 276.53125 1145.609375 233.390625 1102.46875 233.390625 1049.25 L 233.390625 329.226562 C 233.390625 276.011719 276.53125 232.867188 329.75 232.867188 Z M 329.75 232.867188 "/>
<path style=" stroke:none;fill-rule:evenodd;fill:rgb(98.431373%,73.72549%,1.568627%);fill-opacity:1;" d="M 233.390625 329.253906 L 233.390625 1049.226562 C 233.390625 1059.269531 234.925781 1068.953125 237.769531 1078.054688 L 627.214844 688.613281 L 238.25 298.941406 C 235.019531 308.71875 233.378906 318.953125 233.386719 329.253906 Z M 233.390625 329.253906 "/>
<path style=" stroke:none;fill-rule:evenodd;fill:rgb(91.764706%,26.27451%,20.784314%);fill-opacity:1;" d="M 626.21875 690.578125 L 628.183594 688.613281 L 630.148438 690.578125 Z M 239.222656 298.941406 C 251.925781 260.5625 288.089844 232.871094 330.707031 232.871094 L 924.953125 232.871094 C 967.773438 232.871094 1004.074219 260.816406 1016.609375 299.476562 L 628.183594 687.90625 Z M 239.222656 298.941406 "/>
<path style=" stroke:none;fill-rule:evenodd;fill:rgb(20.392157%,65.882353%,32.54902%);fill-opacity:1;" d="M 625.738281 687.898438 L 627.703125 689.867188 L 629.667969 687.898438 Z M 238.742188 1079.539062 C 251.445312 1117.921875 287.613281 1145.609375 330.222656 1145.609375 L 924.46875 1145.609375 C 967.292969 1145.609375 1003.589844 1117.667969 1016.128906 1079.007812 L 627.703125 690.578125 Z M 238.742188 1079.539062 "/>
<path style=" stroke:none;fill-rule:evenodd;fill:rgb(25.882353%,52.156863%,95.686275%);fill-opacity:1;" d="M 819.578125 687.898438 C 819.578125 794.335938 733.292969 880.621094 626.859375 880.621094 C 520.421875 880.621094 434.136719 794.335938 434.136719 687.898438 C 434.136719 581.464844 520.421875 495.179688 626.859375 495.179688 C 733.292969 495.179688 819.578125 581.464844 819.578125 687.898438 Z M 819.578125 687.898438 "/>
<path style=" stroke:none;fill-rule:nonzero;fill:rgb(100%,100%,100%);fill-opacity:1;" d="M 857.691406 648.503906 C 860.6875 664.535156 862.191406 680.8125 862.179688 697.125 C 862.179688 829.390625 773.472656 923.449219 639.53125 923.449219 C 511.390625 923.449219 407.597656 819.835938 407.597656 691.917969 C 407.597656 563.996094 511.390625 460.386719 639.53125 460.386719 C 702.15625 460.386719 754.476562 483.390625 794.640625 520.726562 L 729.25 585.992188 L 729.25 585.84375 C 704.902344 562.6875 674.027344 550.824219 639.527344 550.824219 C 562.996094 550.824219 500.808594 615.363281 500.808594 691.773438 C 500.808594 768.167969 562.996094 832.863281 639.527344 832.863281 C 708.96875 832.863281 756.21875 793.210938 765.945312 738.804688 L 639.527344 738.804688 L 639.527344 648.503906 Z M 857.691406 648.503906 "/>
</g>
</svg>
