<?xml version="1.0" encoding="UTF-8"?>
<svg xmlns="http://www.w3.org/2000/svg" xmlns:xlink="http://www.w3.org/1999/xlink" width="0px" height="px" viewBox="0 0 43 43" version="1.1">
<g id="surface1">
<path style=" stroke:none;fill-rule:evenodd;fill:rgb(25.882353%,52.156863%,95.686275%);fill-opacity:1;" d="M 32.679688 25.382812 L 21.5 25.382812 L 21.5 17.757812 L 41.394531 17.757812 C 41.621094 18.992188 41.734375 20.246094 41.734375 21.5 C 41.734375 22.800781 41.613281 24.101562 41.367188 25.378906 C 40.527344 29.742188 38.269531 33.699219 34.945312 36.648438 L 27.910156 31.285156 C 30.101562 29.886719 31.777344 27.816406 32.679688 25.378906 Z M 32.679688 25.382812 "/>
<path style=" stroke:none;fill-rule:evenodd;fill:rgb(91.764706%,26.27451%,20.784314%);fill-opacity:1;" d="M 29.0625 11.996094 L 34.820312 6.242188 C 31.265625 3.140625 26.609375 1.265625 21.5 1.265625 C 13.808594 1.246094 6.773438 5.601562 3.359375 12.492188 L 10.109375 17.6875 C 11.652344 12.691406 16.273438 9.292969 21.5 9.304688 C 24.375 9.304688 27.007812 10.3125 29.0625 11.996094 Z M 29.0625 11.996094 "/>
<path style=" stroke:none;fill-rule:evenodd;fill:rgb(98.431373%,73.72549%,1.960784%);fill-opacity:1;" d="M 10.222656 25.105469 L 3.269531 30.320312 C 1.984375 27.65625 1.265625 24.667969 1.265625 21.5 C 1.265625 18.261719 2.019531 15.203125 3.359375 12.492188 L 10.109375 17.6875 C 9.765625 18.800781 9.582031 19.992188 9.582031 21.222656 C 9.582031 22.585938 9.804688 23.890625 10.222656 25.105469 Z M 10.222656 25.105469 "/>
<path style=" stroke:none;fill-rule:evenodd;fill:rgb(20.392157%,65.882353%,32.54902%);fill-opacity:1;" d="M 10.222656 25.105469 L 3.269531 30.320312 C 6.644531 37.316406 13.734375 41.753906 21.5 41.734375 C 26.457031 41.75 31.242188 39.9375 34.945312 36.648438 L 27.910156 31.285156 C 26.0625 32.460938 23.863281 33.140625 21.5 33.140625 C 16.410156 33.152344 11.875 29.921875 10.222656 25.105469 Z M 10.222656 25.105469 "/>
</g>
</svg>
