<?xml version="1.0" encoding="UTF-8"?>
<svg xmlns="http://www.w3.org/2000/svg" xmlns:xlink="http://www.w3.org/1999/xlink" width="0px" height="px" viewBox="0 0 41 41" version="1.1">
<g id="surface1">
<path style=" stroke:none;fill-rule:nonzero;fill:rgb(100%,100%,100%);fill-opacity:1;" d="M 31.15625 9.722656 L 9.84375 9.722656 L 9.84375 30.777344 L 31.15625 30.777344 Z M 31.15625 9.722656 "/>
<path style=" stroke:none;fill-rule:nonzero;fill:rgb(91.764706%,26.27451%,20.784314%);fill-opacity:1;" d="M 31.15625 40.25 L 40.746094 30.777344 L 31.15625 30.777344 Z M 31.15625 40.25 "/>
<path style=" stroke:none;fill-rule:nonzero;fill:rgb(98.431373%,73.72549%,1.568627%);fill-opacity:1;" d="M 40.746094 9.722656 L 31.15625 9.722656 L 31.15625 30.777344 L 40.746094 30.777344 Z M 40.746094 9.722656 "/>
<path style=" stroke:none;fill-rule:nonzero;fill:rgb(20.392157%,65.882353%,32.54902%);fill-opacity:1;" d="M 31.15625 30.777344 L 9.84375 30.777344 L 9.84375 40.25 L 31.15625 40.25 Z M 31.15625 30.777344 "/>
<path style=" stroke:none;fill-rule:nonzero;fill:rgb(9.411765%,50.196078%,21.960784%);fill-opacity:1;" d="M 0.253906 30.777344 L 0.253906 37.09375 C 0.253906 38.835938 1.683594 40.25 3.449219 40.25 L 9.84375 40.25 L 9.84375 30.777344 Z M 0.253906 30.777344 "/>
<path style=" stroke:none;fill-rule:nonzero;fill:rgb(9.803922%,40.392157%,82.352941%);fill-opacity:1;" d="M 40.746094 9.722656 L 40.746094 3.40625 C 40.746094 1.664062 39.316406 0.25 37.550781 0.25 L 31.15625 0.25 L 31.15625 9.722656 Z M 40.746094 9.722656 "/>
<path style=" stroke:none;fill-rule:nonzero;fill:rgb(25.882353%,52.156863%,95.686275%);fill-opacity:1;" d="M 31.15625 0.25 L 3.449219 0.25 C 1.683594 0.25 0.253906 1.664062 0.253906 3.40625 L 0.253906 30.777344 L 9.84375 30.777344 L 9.84375 9.722656 L 31.15625 9.722656 Z M 14.214844 26.054688 C 13.417969 25.523438 12.867188 24.746094 12.566406 23.722656 L 14.414062 22.96875 C 14.582031 23.601562 14.875 24.089844 15.292969 24.4375 C 15.710938 24.785156 16.214844 24.957031 16.808594 24.957031 C 17.414062 24.957031 17.933594 24.773438 18.367188 24.410156 C 18.800781 24.046875 19.019531 23.585938 19.019531 23.023438 C 19.03125 22.472656 18.773438 21.953125 18.332031 21.617188 C 17.875 21.253906 17.296875 21.074219 16.609375 21.074219 L 15.542969 21.074219 L 15.542969 19.265625 L 16.5 19.265625 C 17.09375 19.265625 17.589844 19.109375 17.996094 18.792969 C 18.402344 18.476562 18.601562 18.046875 18.601562 17.496094 C 18.601562 17.007812 18.421875 16.617188 18.058594 16.324219 C 17.699219 16.03125 17.238281 15.886719 16.683594 15.886719 C 16.140625 15.886719 15.707031 16.027344 15.386719 16.3125 C 15.066406 16.601562 14.828125 16.964844 14.691406 17.371094 L 12.859375 16.617188 C 13.101562 15.9375 13.546875 15.339844 14.199219 14.820312 C 14.851562 14.300781 15.6875 14.039062 16.699219 14.039062 C 17.445312 14.039062 18.121094 14.183594 18.71875 14.46875 C 19.3125 14.757812 19.78125 15.152344 20.121094 15.660156 C 20.460938 16.164062 20.628906 16.734375 20.628906 17.367188 C 20.628906 18.011719 20.46875 18.554688 20.15625 19.003906 C 19.839844 19.453125 19.457031 19.792969 18.996094 20.03125 L 18.996094 20.140625 C 19.589844 20.382812 20.101562 20.777344 20.484375 21.285156 C 20.871094 21.796875 21.0625 22.410156 21.0625 23.128906 C 21.0625 23.84375 20.878906 24.484375 20.511719 25.042969 C 20.144531 25.605469 19.636719 26.046875 18.992188 26.367188 C 18.34375 26.6875 17.617188 26.851562 16.808594 26.851562 C 15.875 26.851562 15.011719 26.589844 14.214844 26.054688 Z M 25.574219 16.992188 L 23.542969 18.441406 L 22.527344 16.921875 L 26.167969 14.328125 L 27.566406 14.328125 L 27.566406 26.566406 L 25.574219 26.566406 Z M 25.574219 16.992188 "/>
</g>
</svg>
