<?xml version="1.0" encoding="UTF-8"?>
<svg xmlns="http://www.w3.org/2000/svg" xmlns:xlink="http://www.w3.org/1999/xlink" width="0px" height="px" viewBox="0 0 29 41" version="1.1">
<g id="surface1">
<path style=" stroke:none;fill-rule:nonzero;fill:rgb(20.392157%,65.882353%,32.54902%);fill-opacity:1;" d="M 8.085938 30.257812 C 9.261719 31.75 10.335938 33.324219 11.292969 34.964844 C 12.109375 36.507812 12.453125 37.554688 13.050781 39.414062 C 13.414062 40.441406 13.746094 40.746094 14.460938 40.746094 C 15.234375 40.746094 15.585938 40.226562 15.859375 39.417969 C 16.425781 37.664062 16.867188 36.324219 17.566406 35.054688 C 18.941406 32.613281 20.644531 30.441406 22.324219 28.351562 C 22.777344 27.761719 25.710938 24.320312 27.03125 21.601562 C 27.03125 21.601562 28.652344 18.617188 28.652344 14.453125 C 28.652344 10.554688 27.054688 7.851562 27.054688 7.851562 L 18.628906 17.835938 Z M 8.085938 30.257812 "/>
<path style=" stroke:none;fill-rule:nonzero;fill:rgb(98.431373%,73.72549%,1.568627%);fill-opacity:1;" d="M 1.652344 21.101562 C 3.175781 24.554688 6.105469 27.59375 8.089844 30.261719 L 18.628906 17.839844 C 18.628906 17.839844 17.144531 19.773438 14.453125 19.773438 C 13.011719 19.777344 11.628906 19.214844 10.613281 18.203125 C 9.59375 17.191406 9.023438 15.816406 9.027344 14.382812 C 9.027344 12.324219 10.273438 10.90625 10.273438 10.90625 Z M 1.652344 21.101562 "/>
<path style=" stroke:none;fill-rule:nonzero;fill:rgb(25.882353%,52.156863%,95.686275%);fill-opacity:1;" d="M 18.746094 0.890625 C 22.25 2.015625 25.242188 4.371094 27.054688 7.847656 L 18.632812 17.832031 C 18.632812 17.832031 19.878906 16.390625 19.878906 14.34375 C 19.878906 11.269531 17.277344 8.972656 14.464844 8.972656 C 11.804688 8.972656 10.277344 10.898438 10.277344 10.898438 Z M 18.746094 0.890625 "/>
<path style=" stroke:none;fill-rule:nonzero;fill:rgb(10.196078%,45.098039%,90.980392%);fill-opacity:1;" d="M 3.582031 5.304688 C 5.675781 2.816406 9.351562 0.253906 14.425781 0.253906 C 16.882812 0.253906 18.738281 0.894531 18.738281 0.894531 L 10.269531 10.90625 L 4.269531 10.90625 Z M 3.582031 5.304688 "/>
<path style=" stroke:none;fill-rule:nonzero;fill:rgb(91.764706%,26.27451%,20.784314%);fill-opacity:1;" d="M 1.652344 21.101562 C 1.652344 21.101562 0.253906 18.375 0.253906 14.425781 C 0.253906 10.695312 1.710938 7.429688 3.582031 5.304688 L 10.273438 10.90625 Z M 1.652344 21.101562 "/>
</g>
</svg>
