<?xml version="1.0" encoding="UTF-8"?>
<svg xmlns="http://www.w3.org/2000/svg" xmlns:xlink="http://www.w3.org/1999/xlink" width="0px" height="px" viewBox="0 0 95 95" version="1.1">
<g id="surface1">
<path style=" stroke:none;fill-rule:nonzero;fill:rgb(94.117647%,41.568627%,20.784314%);fill-opacity:1;" d="M 10.824219 94.734375 C 9.054688 94.265625 7.523438 93.574219 6.113281 92.609375 C 4.921875 91.792969 3.179688 90.105469 2.519531 89.125 C 1.710938 87.929688 0.78125 85.878906 0.402344 84.457031 C 0.015625 83.007812 0.0078125 82.429688 0 47.628906 C -0.00390625 13 0.00390625 12.238281 0.382812 10.75 C 1.71875 5.488281 5.867188 1.484375 11.214844 0.289062 C 12.753906 -0.0546875 81.453125 -0.113281 83.113281 0.226562 C 87.601562 1.148438 91.132812 3.859375 93.175781 7.957031 C 94.800781 11.210938 94.652344 7.628906 94.726562 46.292969 C 94.777344 70.890625 94.730469 81.21875 94.574219 82.503906 C 93.84375 88.523438 89.714844 93.195312 83.773438 94.71875 C 82.253906 95.109375 81.722656 95.117188 47.210938 95.105469 C 13.839844 95.097656 12.125 95.078125 10.824219 94.734375 Z M 10.824219 94.734375 "/>
<path style=" stroke:none;fill-rule:nonzero;fill:rgb(100%,100%,100%);fill-opacity:1;" d="M 60.78125 76.867188 C 65.035156 76.285156 68.371094 74.566406 71.5 71.355469 C 73.765625 69.027344 75.179688 66.511719 76.105469 63.171875 C 76.492188 61.78125 76.523438 61.105469 76.59375 52.957031 C 76.648438 46.808594 76.605469 43.929688 76.445312 43.199219 C 76.214844 42.148438 75.558594 41.167969 74.8125 40.757812 C 74.582031 40.632812 73.109375 40.472656 71.542969 40.402344 C 68.910156 40.285156 68.617188 40.234375 67.789062 39.746094 C 66.472656 38.96875 66.109375 38.132812 66.105469 35.859375 C 66.097656 31.511719 64.300781 27.476562 60.746094 23.835938 C 58.214844 21.238281 55.390625 19.484375 52.164062 18.5 C 51.394531 18.265625 49.664062 18.183594 43.878906 18.113281 C 34.796875 18.007812 32.78125 18.195312 29.6875 19.433594 C 23.988281 21.714844 19.894531 26.527344 18.398438 32.695312 C 18.121094 33.855469 18.066406 35.710938 18 46.375 C 17.914062 59.738281 18.007812 61.703125 18.835938 64.347656 C 19.523438 66.539062 20.214844 67.878906 21.640625 69.78125 C 24.359375 73.40625 28.429688 76.023438 32.5 76.761719 C 34.4375 77.113281 58.332031 77.203125 60.78125 76.867188 Z M 60.78125 76.867188 "/>
<path style=" stroke:none;fill-rule:nonzero;fill:rgb(94.117647%,41.568627%,20.784314%);fill-opacity:1;" d="M 35.664062 40.183594 C 33.488281 39.582031 32.675781 36.441406 34.273438 34.820312 C 35.296875 33.78125 35.578125 33.742188 41.976562 33.742188 C 47.722656 33.742188 47.914062 33.753906 48.757812 34.183594 C 49.976562 34.800781 50.507812 35.675781 50.507812 37.066406 C 50.507812 38.320312 50.011719 39.203125 48.898438 39.910156 C 48.304688 40.289062 47.949219 40.3125 42.320312 40.347656 C 38.84375 40.367188 36.078125 40.300781 35.664062 40.183594 Z M 35.390625 61.3125 C 34.457031 60.902344 33.589844 59.765625 33.4375 58.757812 C 33.292969 57.796875 33.773438 56.476562 34.511719 55.808594 C 35.4375 54.964844 35.84375 54.9375 47.246094 54.925781 C 58.976562 54.917969 58.917969 54.914062 60.03125 55.957031 C 61.601562 57.433594 61.269531 60.058594 59.375 61.136719 L 57.429688 61.457031 L 47.289062 61.574219 C 38.378906 61.679688 35.855469 61.515625 35.390625 61.3125 Z M 35.390625 61.3125 "/>
</g>
</svg>
