<?xml version="1.0" encoding="UTF-8"?>
<svg xmlns="http://www.w3.org/2000/svg" xmlns:xlink="http://www.w3.org/1999/xlink" width="0px" height="px" viewBox="0 0 600 400" version="1.1">
<g id="surface1">
<path style=" stroke:none;fill-rule:nonzero;fill:rgb(0%,51.372549%,17.647059%);fill-opacity:1;" d="M 321.277344 200 L 352.871094 236.109375 L 395.351562 263.257812 L 402.757812 200.222656 L 395.351562 138.59375 L 352.054688 162.445312 Z M 321.277344 200 "/>
<path style=" stroke:none;fill-rule:nonzero;fill:rgb(0%,40%,85.490196%);fill-opacity:1;" d="M 137.945312 257.40625 L 137.945312 311.109375 C 137.945312 323.390625 147.890625 333.332031 160.167969 333.332031 L 213.871094 333.332031 L 224.980469 292.742188 L 213.871094 257.40625 L 177.019531 246.296875 Z M 137.945312 257.40625 "/>
<path style=" stroke:none;fill-rule:nonzero;fill:rgb(91.372549%,25.882353%,20.784314%);fill-opacity:1;" d="M 213.871094 66.667969 L 137.945312 142.59375 L 177.019531 153.703125 L 213.871094 142.59375 L 224.796875 107.742188 Z M 213.871094 66.667969 "/>
<path style=" stroke:none;fill-rule:nonzero;fill:rgb(14.901961%,51.764706%,98.823529%);fill-opacity:1;" d="M 213.871094 142.59375 L 137.945312 142.59375 L 137.945312 257.40625 L 213.871094 257.40625 Z M 213.871094 142.59375 "/>
<path style=" stroke:none;fill-rule:nonzero;fill:rgb(0%,67.45098%,27.843137%);fill-opacity:1;" d="M 443.871094 98.816406 L 395.351562 138.59375 L 395.351562 263.257812 L 444.09375 303.222656 C 451.390625 308.925781 462.054688 303.722656 462.054688 294.445312 L 462.054688 107.40625 C 462.054688 98.019531 451.148438 92.871094 443.871094 98.816406 Z M 321.277344 200 L 321.277344 257.40625 L 213.871094 257.40625 L 213.871094 333.332031 L 373.128906 333.332031 C 385.40625 333.332031 395.351562 323.390625 395.351562 311.109375 L 395.351562 263.257812 Z M 321.277344 200 "/>
<path style=" stroke:none;fill-rule:nonzero;fill:rgb(100%,72.941176%,0%);fill-opacity:1;" d="M 373.128906 66.667969 L 213.871094 66.667969 L 213.871094 142.59375 L 321.277344 142.59375 L 321.277344 200 L 395.351562 138.628906 L 395.351562 88.890625 C 395.351562 76.609375 385.40625 66.667969 373.128906 66.667969 Z M 373.128906 66.667969 "/>
</g>
</svg>
