<?xml version="1.0" encoding="UTF-8"?>
<svg xmlns="http://www.w3.org/2000/svg" xmlns:xlink="http://www.w3.org/1999/xlink" width="0px" height="px" viewBox="0 0 1250 1250" version="1.1">
<g id="surface1">
<path style=" stroke:none;fill-rule:evenodd;fill:rgb(76.470588%,76.470588%,76.470588%);fill-opacity:1;" d="M 0 827.378906 L 1250 827.378906 L 1250 1202.390625 C 1250 1228.6875 1228.699219 1250 1202.382812 1250 L 47.617188 1250 C 21.320312 1250 0 1228.679688 0 1202.390625 Z M 0 827.378906 "/>
<path style=" stroke:none;fill-rule:evenodd;fill:rgb(89.019608%,89.019608%,89.019608%);fill-opacity:1;" d="M 0 422.621094 L 1250 422.621094 L 1250 827.378906 L 0 827.378906 Z M 0 422.621094 "/>
<path style=" stroke:none;fill-rule:evenodd;fill:rgb(94.901961%,94.901961%,94.901961%);fill-opacity:1;" d="M 0 47.609375 C 0 21.3125 21.300781 0 47.617188 0 L 1202.382812 0 C 1228.679688 0 1250 21.320312 1250 47.609375 L 1250 422.621094 L 0 422.621094 Z M 0 47.609375 "/>
<path style=" stroke:none;fill-rule:evenodd;fill:rgb(9.019608%,62.745098%,36.470588%);fill-opacity:1;" d="M 0 958.332031 L 297.621094 625 L 638.324219 697.398438 L 1250 65.476562 L 1250 1202.375 C 1250 1228.675781 1228.699219 1250 1202.382812 1250 L 47.617188 1250 C 21.320312 1250 0 1228.671875 0 1202.367188 Z M 0 958.332031 "/>
<path style=" stroke:none;fill-rule:evenodd;fill:rgb(62.352941%,80.392157%,41.176471%);fill-opacity:1;" d="M 0 1148.808594 L 303.570312 886.90625 L 625 982.144531 L 1250 517.855469 L 1250 1202.386719 C 1250 1228.679688 1228.699219 1250 1202.382812 1250 L 47.617188 1250 C 21.320312 1250 0 1228.664062 0 1202.367188 Z M 0 1148.808594 "/>
</g>
</svg>
