<?xml version="1.0" encoding="UTF-8"?>
<svg xmlns="http://www.w3.org/2000/svg" xmlns:xlink="http://www.w3.org/1999/xlink" width="0px" height="px" viewBox="0 0 41 37" version="1.1">
<g id="surface1">
<path style=" stroke:none;fill-rule:nonzero;fill:rgb(0%,40%,85.490196%);fill-opacity:1;" d="M 3.3125 31.304688 L 5.101562 34.390625 C 5.472656 35.042969 6.003906 35.554688 6.632812 35.925781 L 13.007812 24.871094 L 0.253906 24.871094 C 0.253906 25.605469 0.445312 26.324219 0.808594 26.960938 Z M 3.3125 31.304688 "/>
<path style=" stroke:none;fill-rule:nonzero;fill:rgb(0%,67.45098%,27.843137%);fill-opacity:1;" d="M 20.5 11.867188 L 14.121094 0.8125 C 13.496094 1.183594 12.960938 1.695312 12.589844 2.34375 L 0.808594 22.78125 C 0.445312 23.417969 0.253906 24.136719 0.253906 24.871094 L 13.007812 24.871094 Z M 20.5 11.867188 "/>
<path style=" stroke:none;fill-rule:nonzero;fill:rgb(91.764706%,26.27451%,20.784314%);fill-opacity:1;" d="M 34.367188 35.925781 C 34.996094 35.554688 35.527344 35.042969 35.898438 34.390625 L 36.640625 33.113281 L 40.191406 26.960938 C 40.554688 26.324219 40.746094 25.605469 40.746094 24.871094 L 27.992188 24.871094 L 30.703125 30.210938 Z M 34.367188 35.925781 "/>
<path style=" stroke:none;fill-rule:nonzero;fill:rgb(0%,51.372549%,17.647059%);fill-opacity:1;" d="M 20.5 11.867188 L 26.878906 0.8125 C 26.25 0.4375 25.53125 0.253906 24.789062 0.253906 L 16.210938 0.253906 C 15.46875 0.253906 14.75 0.460938 14.121094 0.8125 Z M 20.5 11.867188 "/>
<path style=" stroke:none;fill-rule:nonzero;fill:rgb(14.901961%,51.764706%,98.823529%);fill-opacity:1;" d="M 27.992188 24.871094 L 13.007812 24.871094 L 6.632812 35.925781 C 7.257812 36.296875 7.976562 36.480469 8.71875 36.480469 L 32.28125 36.480469 C 33.023438 36.480469 33.742188 36.273438 34.367188 35.925781 Z M 27.992188 24.871094 "/>
<path style=" stroke:none;fill-rule:nonzero;fill:rgb(100%,72.941176%,0%);fill-opacity:1;" d="M 34.300781 12.5625 L 28.410156 2.34375 C 28.039062 1.695312 27.503906 1.183594 26.878906 0.8125 L 20.5 11.867188 L 27.992188 24.871094 L 40.722656 24.871094 C 40.722656 24.136719 40.53125 23.417969 40.167969 22.78125 Z M 34.300781 12.5625 "/>
</g>
</svg>
