<?xml version="1.0" encoding="UTF-8"?>
<svg xmlns="http://www.w3.org/2000/svg" xmlns:xlink="http://www.w3.org/1999/xlink" width="0px" height="px" viewBox="0 0 37 41" version="1.1">
<defs>
<linearGradient id="linear0" gradientUnits="userSpaceOnUse" x1="0" y1="0.5" x2="1" y2="0.5" gradientTransform="matrix(19.957031,0,0,38.738281,0.25,0.9375)">
<stop offset="0.53" style="stop-color:rgb(0%,76.470588%,90.196078%);stop-opacity:1;"/>
<stop offset="1" style="stop-color:rgb(0%,69.019608%,90.196078%);stop-opacity:1;"/>
</linearGradient>
<linearGradient id="linear1" gradientUnits="userSpaceOnUse" x1="0" y1="0" x2="1" y2="1" gradientTransform="matrix(26.054688,0,0,19.738281,0.714844,0.378906)">
<stop offset="0" style="stop-color:rgb(5.490196%,85.490196%,45.490196%);stop-opacity:1;"/>
<stop offset="1" style="stop-color:rgb(0%,94.117647%,46.27451%);stop-opacity:1;"/>
</linearGradient>
<linearGradient id="linear2" gradientUnits="userSpaceOnUse" x1="0" y1="0.89" x2="1" y2="0.11" gradientTransform="matrix(16.042969,0,0,13.34375,20.207031,13.5)">
<stop offset="0" style="stop-color:rgb(90.196078%,67.45098%,0%);stop-opacity:1;"/>
<stop offset="0.63" style="stop-color:rgb(90.196078%,78.039216%,0%);stop-opacity:1;"/>
</linearGradient>
<linearGradient id="linear3" gradientUnits="userSpaceOnUse" x1="0" y1="0.44" x2="1" y2="0.56" gradientTransform="matrix(26.230469,0,0,20.003906,0.8125,20.117188)">
<stop offset="0" style="stop-color:rgb(79.215686%,10.980392%,27.843137%);stop-opacity:1;"/>
<stop offset="0.97" style="stop-color:rgb(89.411765%,0.392157%,5.098039%);stop-opacity:1;"/>
</linearGradient>
<linearGradient id="linear4" gradientUnits="userSpaceOnUse" x1="0" y1="0.83" x2="1" y2="0.17" gradientTransform="matrix(16.0625,0,0,13.3125,20.1875,13.5)">
<stop offset="0" style="stop-color:rgb(100%,75.686275%,0%);stop-opacity:1;"/>
<stop offset="0.64" style="stop-color:rgb(100%,85.882353%,0%);stop-opacity:1;"/>
</linearGradient>
<linearGradient id="linear5" gradientUnits="userSpaceOnUse" x1="0" y1="0.44" x2="1" y2="0.56" gradientTransform="matrix(26.125,0,0,19.945312,0.875,20.117188)">
<stop offset="0" style="stop-color:rgb(88.235294%,14.509804%,32.54902%);stop-opacity:1;"/>
<stop offset="1" style="stop-color:rgb(99.607843%,22.745098%,26.666667%);stop-opacity:1;"/>
</linearGradient>
<linearGradient id="linear6" gradientUnits="userSpaceOnUse" x1="0" y1="0.5" x2="1" y2="0.5" gradientTransform="matrix(19.957031,0,0,38.6875,0.25,0.9375)">
<stop offset="0.53" style="stop-color:rgb(0%,85.098039%,100%);stop-opacity:1;"/>
<stop offset="1" style="stop-color:rgb(0%,76.470588%,100%);stop-opacity:1;"/>
</linearGradient>
</defs>
<g id="surface1">
<path style=" stroke:none;fill-rule:evenodd;fill:url(#linear0);" d="M 20.207031 20.117188 L 0.8125 39.675781 C 0.460938 39.304688 0.25 38.792969 0.25 38.308594 L 0.25 2.191406 C 0.25 1.753906 0.421875 1.292969 0.714844 0.9375 Z M 20.207031 20.117188 "/>
<path style=" stroke:none;fill-rule:evenodd;fill:url(#linear1);" d="M 20.207031 20.117188 L 26.769531 13.5 L 4.125 0.628906 C 3.3125 0.253906 2.25 0.128906 1.5 0.378906 C 1.1875 0.484375 0.921875 0.683594 0.714844 0.9375 Z M 20.207031 20.117188 "/>
<path style=" stroke:none;fill-rule:evenodd;fill:url(#linear2);" d="M 26.769531 13.5 L 20.207031 20.117188 L 27.042969 26.84375 L 34.25 22.75 C 36 21.625 36.25 21.1875 36.25 20.25 C 36.25 19.3125 36 18.875 34.25 17.75 Z M 26.769531 13.5 "/>
<path style=" stroke:none;fill-rule:evenodd;fill:url(#linear3);" d="M 0.8125 39.675781 L 20.207031 20.117188 L 27.042969 26.84375 L 4.125 39.871094 C 3.3125 40.246094 2.25 40.371094 1.5 40.121094 C 1.234375 40.03125 1.003906 39.875 0.8125 39.675781 Z M 0.8125 39.675781 "/>
<path style=" stroke:none;fill-rule:evenodd;fill:url(#linear4);" d="M 26.75 13.5 L 20.1875 20.125 L 27 26.8125 L 34.25 22.6875 C 36 21.5625 36.25 21.1875 36.25 20.25 C 36.25 19.3125 36.023438 18.890625 34.273438 17.765625 Z M 26.75 13.5 "/>
<path style=" stroke:none;fill-rule:evenodd;fill:url(#linear5);" d="M 0.875 39.625 L 20.207031 20.117188 L 27 26.8125 L 4.125 39.8125 C 3.3125 40.1875 2.25 40.3125 1.5 40.0625 C 1.234375 39.972656 1.066406 39.824219 0.875 39.625 Z M 0.875 39.625 "/>
<path style=" stroke:none;fill-rule:evenodd;fill:url(#linear6);" d="M 20.207031 20.117188 L 0.875 39.625 C 0.523438 39.257812 0.25 38.671875 0.25 38.1875 L 0.25 2.191406 C 0.25 1.753906 0.421875 1.292969 0.714844 0.9375 Z M 20.207031 20.117188 "/>
</g>
</svg>
