<?xml version="1.0" encoding="UTF-8"?>
<svg xmlns="http://www.w3.org/2000/svg" xmlns:xlink="http://www.w3.org/1999/xlink" width="0px" height="px" viewBox="0 0 96 96" version="1.1">
<defs>
<filter id="alpha" filterUnits="objectBoundingBox" x="0%" y="0%" width="100%" height="100%">
  <feColorMatrix type="matrix" in="SourceGraphic" values="0 0 0 0 1 0 0 0 0 1 0 0 0 0 1 0 0 0 1 0"/>
</filter>
<mask id="mask0">
  <g filter="url(#alpha)">
<rect x="0" y="0" width="96" height="96" style="fill:rgb(0%,0%,0%);fill-opacity:0.2;stroke:none;"/>
  </g>
</mask>
<clipPath id="clip1">
  <rect x="0" y="0" width="96" height="96"/>
</clipPath>
<g id="surface5" clip-path="url(#clip1)">
<path style=" stroke:none;fill-rule:nonzero;fill:rgb(100%,100%,100%);fill-opacity:1;" d="M 85 4 L 48 4 C 23.699219 4 4 23.691406 4 47.976562 L 4 47.964844 C 4.136719 23.796875 23.785156 4.5 48 4.5 L 85 4.5 C 88.839844 4.5 92 7.664062 92 11.5 L 92 11 C 92 7.164062 88.839844 4 85 4 Z M 85 4 "/>
</g>
</defs>
<g id="surface1">
<path style=" stroke:none;fill-rule:nonzero;fill:rgb(10.196078%,45.098039%,90.980392%);fill-opacity:1;" d="M 92 50.5 C 90.796875 73.726562 71.519531 92 48 92 C 23.703125 92 4 72.300781 4 48 C 4 23.699219 23.703125 4 48 4 L 85 4 C 88.835938 4 92 7.164062 92 11 Z M 92 50.5 "/>
<use xlink:href="#surface5" mask="url(#mask0)"/>
<path style=" stroke:none;fill-rule:nonzero;fill:rgb(10.196078%,13.72549%,49.411765%);fill-opacity:0.2;" d="M 92 50.5 L 92 49.5 C 90.796875 72.730469 71.523438 91.5 48 91.5 C 23.785156 91.5 4.140625 71.691406 4.003906 47.5 C 4.003906 47.585938 4 47.914062 4 48 C 4 72.304688 23.699219 92.046875 48 92 C 71.894531 91.953125 90.933594 73.691406 92 50 "/>
<path style=" stroke:none;fill-rule:nonzero;fill:rgb(9.411765%,35.294118%,73.72549%);fill-opacity:1;" d="M 66 56.5 C 66 60.738281 62.699219 63.496094 58.5 63.5 L 33.5 63.5 C 29.304688 63.503906 26.003906 60.769531 26 56.535156 L 26 59 C 26.003906 63.238281 29.304688 66.503906 33.5 66.5 L 58.5 66.5 C 62.695312 66.496094 66.003906 63.238281 66 59 Z M 78 58.5 C 77.984375 59.734375 76.34375 60.410156 75.5 59.5 L 66 50 L 66 52.5 L 75.5 62 C 76.5 62.953125 78 62.355469 78 61 Z M 78 58.5 "/>
<path style=" stroke:none;fill-rule:nonzero;fill:rgb(94.509804%,95.294118%,95.686275%);fill-opacity:1;" d="M 75.5 34.5 L 66 44 L 66 50.003906 L 75.5 59.5 C 76.386719 60.441406 78 59.789062 78 58.5 L 78 35.5 C 78 34.238281 76.40625 33.609375 75.5 34.5 Z M 75.5 34.5 "/>
<path style=" stroke:none;fill-rule:nonzero;fill:rgb(100%,100%,100%);fill-opacity:1;" d="M 58.5 30 L 33.5 30 C 29.304688 30.003906 25.996094 33.371094 26 37.5 L 26 56.5 C 26.003906 60.628906 29.304688 64.003906 33.5 64 L 58.5 64 C 62.695312 63.996094 66.003906 60.628906 66 56.5 L 66 37.5 C 65.996094 33.371094 62.695312 29.996094 58.5 30 Z M 58.5 30 "/>
<path style=" stroke:none;fill-rule:nonzero;fill:rgb(74.117647%,75.686275%,77.647059%);fill-opacity:1;" d="M 66 50.601562 L 66.003906 50 L 68 52 L 68 42 L 66 44 Z M 66 50.601562 "/>
</g>
</svg>
