<?xml version="1.0" encoding="UTF-8"?>
<svg xmlns="http://www.w3.org/2000/svg" xmlns:xlink="http://www.w3.org/1999/xlink" width="0px" height="px" viewBox="0 0 30 41" version="1.1">
<g id="surface1">
<path style=" stroke:none;fill-rule:evenodd;fill:rgb(15.686275%,70.588235%,27.45098%);fill-opacity:1;" d="M 18.558594 0.253906 L 29.746094 11.390625 L 29.746094 38.214844 C 29.746094 38.886719 29.480469 39.53125 29.003906 40.007812 C 28.527344 40.480469 27.878906 40.75 27.203125 40.746094 L 2.796875 40.746094 C 2.121094 40.75 1.472656 40.480469 0.996094 40.007812 C 0.519531 39.53125 0.253906 38.886719 0.253906 38.214844 L 0.253906 2.785156 C 0.253906 2.113281 0.519531 1.46875 0.996094 0.992188 C 1.472656 0.519531 2.121094 0.25 2.796875 0.253906 Z M 18.558594 0.253906 "/>
<path style=" stroke:none;fill-rule:evenodd;fill:rgb(41.568627%,80.784314%,48.627451%);fill-opacity:1;" d="M 18.558594 0.253906 L 29.746094 11.390625 L 21.101562 11.390625 C 19.691406 11.390625 18.558594 10.132812 18.558594 8.730469 Z M 18.558594 0.253906 "/>
<path style=" stroke:none;fill-rule:evenodd;fill:rgb(12.941176%,60.784314%,21.960784%);fill-opacity:1;" d="M 20.972656 11.390625 L 29.746094 14.996094 L 29.746094 11.390625 Z M 20.972656 11.390625 "/>
<path style=" stroke:none;fill-rule:evenodd;fill:rgb(100%,100%,100%);fill-opacity:1;" d="M 7.882812 21.511719 C 7.882812 20.953125 8.335938 20.5 8.898438 20.5 L 21.101562 20.5 C 21.664062 20.5 22.117188 20.953125 22.117188 21.511719 L 22.117188 32.140625 C 22.117188 32.703125 21.664062 33.15625 21.101562 33.15625 L 8.898438 33.15625 C 8.335938 33.15625 7.882812 32.703125 7.882812 32.140625 Z M 9.40625 22.523438 L 13.984375 22.523438 L 13.984375 24.042969 L 9.40625 24.042969 Z M 9.40625 26.066406 L 13.984375 26.066406 L 13.984375 27.585938 L 9.40625 27.585938 Z M 9.40625 29.609375 L 13.984375 29.609375 L 13.984375 31.128906 L 9.40625 31.128906 Z M 16.015625 22.523438 L 20.59375 22.523438 L 20.59375 24.042969 L 16.015625 24.042969 Z M 16.015625 26.066406 L 20.59375 26.066406 L 20.59375 27.585938 L 16.015625 27.585938 Z M 16.015625 29.609375 L 20.59375 29.609375 L 20.59375 31.128906 L 16.015625 31.128906 Z M 16.015625 29.609375 "/>
</g>
</svg>
