<?xml version="1.0" encoding="UTF-8"?>
<svg xmlns="http://www.w3.org/2000/svg" xmlns:xlink="http://www.w3.org/1999/xlink" width="0px" height="px" viewBox="0 0 30 41" version="1.1">
<g id="surface1">
<path style=" stroke:none;fill-rule:evenodd;fill:rgb(98.431373%,73.333333%,0%);fill-opacity:1;" d="M 18.558594 0.253906 L 29.746094 11.390625 L 29.746094 38.214844 C 29.746094 38.886719 29.480469 39.53125 29.003906 40.007812 C 28.527344 40.480469 27.878906 40.75 27.203125 40.746094 L 2.796875 40.746094 C 2.121094 40.75 1.472656 40.480469 0.996094 40.007812 C 0.519531 39.53125 0.253906 38.886719 0.253906 38.214844 L 0.253906 2.785156 C 0.253906 2.113281 0.519531 1.46875 0.996094 0.992188 C 1.472656 0.519531 2.121094 0.25 2.796875 0.253906 Z M 18.558594 0.253906 "/>
<path style=" stroke:none;fill-rule:evenodd;fill:rgb(95.686275%,82.745098%,49.019608%);fill-opacity:1;" d="M 18.558594 0.253906 L 29.746094 11.390625 L 21.101562 11.390625 C 19.691406 11.390625 18.558594 10.132812 18.558594 8.730469 Z M 18.558594 0.253906 "/>
<path style=" stroke:none;fill-rule:evenodd;fill:rgb(88.627451%,63.529412%,1.176471%);fill-opacity:1;" d="M 20.972656 11.390625 L 29.746094 14.996094 L 29.746094 11.390625 Z M 20.972656 11.390625 "/>
<path style=" stroke:none;fill-rule:evenodd;fill:rgb(100%,100%,100%);fill-opacity:1;" d="M 6.863281 20.5 C 6.863281 19.828125 7.128906 19.183594 7.609375 18.707031 C 8.085938 18.234375 8.730469 17.96875 9.40625 17.96875 L 20.085938 17.96875 C 20.757812 17.96875 21.40625 18.234375 21.882812 18.707031 C 22.359375 19.183594 22.628906 19.828125 22.628906 20.5 L 22.628906 31.128906 C 22.628906 31.800781 22.359375 32.445312 21.882812 32.921875 C 21.40625 33.394531 20.757812 33.660156 20.085938 33.660156 L 9.40625 33.660156 C 8.730469 33.660156 8.085938 33.394531 7.609375 32.921875 C 7.128906 32.445312 6.863281 31.800781 6.863281 31.128906 Z M 7.882812 20.5 C 7.882812 19.660156 8.5625 18.980469 9.40625 18.980469 L 20.085938 18.980469 C 20.929688 18.980469 21.609375 19.660156 21.609375 20.5 L 21.609375 31.128906 C 21.609375 31.972656 20.929688 32.648438 20.085938 32.648438 L 9.40625 32.648438 C 8.5625 32.648438 7.882812 31.972656 7.882812 31.128906 Z M 9.40625 23.03125 C 9.40625 22.46875 9.859375 22.019531 10.421875 22.019531 L 19.066406 22.019531 C 19.632812 22.019531 20.085938 22.46875 20.085938 23.03125 L 20.085938 28.597656 C 20.085938 29.160156 19.632812 29.609375 19.066406 29.609375 L 10.421875 29.609375 C 9.859375 29.609375 9.40625 29.160156 9.40625 28.597656 Z M 10.421875 23.03125 L 19.066406 23.03125 L 19.066406 28.597656 L 10.421875 28.597656 Z M 10.421875 23.03125 "/>
</g>
</svg>
