<?xml version="1.0" encoding="UTF-8"?>
<svg xmlns="http://www.w3.org/2000/svg" xmlns:xlink="http://www.w3.org/1999/xlink" width="0px" height="px" viewBox="0 0 3275 2680" version="1.1">
<defs>
<filter id="alpha" filterUnits="objectBoundingBox" x="0%" y="0%" width="100%" height="100%">
  <feColorMatrix type="matrix" in="SourceGraphic" values="0 0 0 0 1 0 0 0 0 1 0 0 0 0 1 0 0 0 1 0"/>
</filter>
<mask id="mask0">
  <g filter="url(#alpha)">
<rect x="0" y="0" width="3275" height="2680" style="fill:rgb(0%,0%,0%);fill-opacity:0.2;stroke:none;"/>
  </g>
</mask>
<clipPath id="clip1">
  <rect x="0" y="0" width="3275" height="2680"/>
</clipPath>
<g id="surface5" clip-path="url(#clip1)">
<path style=" stroke:none;fill-rule:nonzero;fill:rgb(0%,30.196078%,25.098039%);fill-opacity:1;" d="M 2605.082031 446.046875 L 1942.414062 360.746094 L 2605.082031 538.550781 Z M 2605.082031 446.046875 "/>
</g>
<mask id="mask1">
  <g filter="url(#alpha)">
<rect x="0" y="0" width="3275" height="2680" style="fill:rgb(0%,0%,0%);fill-opacity:0.2;stroke:none;"/>
  </g>
</mask>
<clipPath id="clip2">
  <rect x="0" y="0" width="3275" height="2680"/>
</clipPath>
<g id="surface8" clip-path="url(#clip2)">
<path style=" stroke:none;fill-rule:nonzero;fill:rgb(0%,30.196078%,25.098039%);fill-opacity:1;" d="M 1669.445312 90.488281 L 665.917969 538.652344 L 1775.03125 134.886719 L 1775.03125 133.789062 C 1755.535156 91.988281 1708.042969 72.484375 1669.445312 90.488281 Z M 1669.445312 90.488281 "/>
</g>
<mask id="mask2">
  <g filter="url(#alpha)">
<rect x="0" y="0" width="3275" height="2680" style="fill:rgb(0%,0%,0%);fill-opacity:0.2;stroke:none;"/>
  </g>
</mask>
<clipPath id="clip3">
  <rect x="0" y="0" width="3275" height="2680"/>
</clipPath>
<g id="surface11" clip-path="url(#clip3)">
<path style=" stroke:none;fill-rule:nonzero;fill:rgb(100%,100%,100%);fill-opacity:1;" d="M 2521.59375 0.0351562 L 753.40625 0.0351562 C 707.464844 0.0351562 669.867188 37.386719 669.867188 82.988281 L 669.867188 101.585938 C 669.867188 55.984375 707.464844 18.632812 753.40625 18.632812 L 2521.59375 18.632812 C 2567.535156 18.632812 2605.132812 55.984375 2605.132812 101.585938 L 2605.132812 82.988281 C 2605.082031 37.386719 2567.535156 0.0351562 2521.59375 0.0351562 Z M 2521.59375 0.0351562 "/>
</g>
<mask id="mask3">
  <g filter="url(#alpha)">
<rect x="0" y="0" width="3275" height="2680" style="fill:rgb(0%,0%,0%);fill-opacity:0.2;stroke:none;"/>
  </g>
</mask>
<clipPath id="clip4">
  <rect x="0" y="0" width="3275" height="2680"/>
</clipPath>
<g id="surface14" clip-path="url(#clip4)">
<path style=" stroke:none;fill-rule:nonzero;fill:rgb(24.313725%,15.294118%,13.72549%);fill-opacity:1;" d="M 2902.84375 1319.125 L 2988.984375 1842.492188 L 2902.84375 2164.148438 Z M 2902.84375 1319.125 "/>
</g>
<mask id="mask4">
  <g filter="url(#alpha)">
<rect x="0" y="0" width="3275" height="2680" style="fill:rgb(0%,0%,0%);fill-opacity:0.2;stroke:none;"/>
  </g>
</mask>
<clipPath id="clip5">
  <rect x="0" y="0" width="3275" height="2680"/>
</clipPath>
<g id="surface17" clip-path="url(#clip5)">
<path style=" stroke:none;fill-rule:nonzero;fill:rgb(24.313725%,15.294118%,13.72549%);fill-opacity:1;" d="M 1950.160156 382.097656 L 2027.351562 402.847656 L 2075.246094 725.855469 Z M 1950.160156 382.097656 "/>
</g>
<mask id="mask5">
  <g filter="url(#alpha)">
<rect x="0" y="0" width="3275" height="2680" style="fill:rgb(0%,0%,0%);fill-opacity:0.2;stroke:none;"/>
  </g>
</mask>
<clipPath id="clip6">
  <rect x="0" y="0" width="3275" height="2680"/>
</clipPath>
<g id="surface20" clip-path="url(#clip6)">
<path style=" stroke:none;fill-rule:nonzero;fill:rgb(100%,100%,100%);fill-opacity:1;" d="M 3218.90625 704.105469 L 1581.207031 263.59375 C 1540.113281 252.59375 1496.71875 280.042969 1484.820312 324.59375 L 1099.015625 1764.636719 C 1098.367188 1767.039062 1098.214844 1769.488281 1097.765625 1771.886719 L 1480.667969 342.746094 C 1492.617188 298.191406 1536.011719 270.742188 1577.058594 281.742188 L 3214.757812 722.257812 C 3253.601562 732.65625 3276.648438 773.90625 3269 816.058594 L 3271.949219 805.109375 C 3283.847656 760.558594 3260 715.105469 3218.90625 704.105469 Z M 3218.90625 704.105469 "/>
</g>
<mask id="mask6">
  <g filter="url(#alpha)">
<rect x="0" y="0" width="3275" height="2680" style="fill:rgb(0%,0%,0%);fill-opacity:0.2;stroke:none;"/>
  </g>
</mask>
<clipPath id="clip7">
  <rect x="0" y="0" width="3275" height="2680"/>
</clipPath>
<g id="surface23" clip-path="url(#clip7)">
<path style=" stroke:none;fill-rule:nonzero;fill:rgb(100%,100%,100%);fill-opacity:1;" d="M 12 885.960938 C -3.75 842.609375 16.046875 795.257812 55.992188 780.707031 L 1784.132812 151.589844 C 1823.675781 137.1875 1868.621094 160.140625 1884.871094 202.589844 L 1878.921875 186.289062 C 1863.121094 142.9375 1817.527344 119.386719 1777.582031 133.9375 L 49.445312 763.058594 C 9.449219 777.609375 -10.347656 824.960938 5.449219 868.3125 L 515.285156 2269.253906 C 515.4375 2269.703125 515.738281 2270.101562 515.9375 2270.601562 Z M 12 885.960938 "/>
</g>
<mask id="mask7">
  <g filter="url(#alpha)">
<rect x="0" y="0" width="3275" height="2680" style="fill:rgb(0%,0%,0%);fill-opacity:0.2;stroke:none;"/>
  </g>
</mask>
<clipPath id="clip8">
  <rect x="0" y="0" width="3275" height="2680"/>
</clipPath>
<g id="surface26" clip-path="url(#clip8)">
<path style=" stroke:none;fill-rule:nonzero;fill:rgb(10.196078%,13.72549%,49.411765%);fill-opacity:1;" d="M 2819.105469 2661.367188 L 455.894531 2661.367188 C 409.851562 2661.367188 372.15625 2623.664062 372.15625 2577.613281 L 372.15625 2596.214844 C 372.15625 2642.265625 409.851562 2679.964844 455.894531 2679.964844 L 2819.105469 2679.964844 C 2865.148438 2679.964844 2902.84375 2642.265625 2902.84375 2596.214844 L 2902.84375 2577.613281 C 2902.84375 2623.664062 2865.148438 2661.367188 2819.105469 2661.367188 Z M 2819.105469 2661.367188 "/>
</g>
<mask id="mask8">
  <g filter="url(#alpha)">
<rect x="0" y="0" width="3275" height="2680" style="fill:rgb(0%,0%,0%);fill-opacity:0.2;stroke:none;"/>
  </g>
</mask>
<clipPath id="clip9">
  <rect x="0" y="0" width="3275" height="2680"/>
</clipPath>
<g id="surface29" clip-path="url(#clip9)">
<path style=" stroke:none;fill-rule:nonzero;fill:rgb(100%,100%,100%);fill-opacity:1;" d="M 455.894531 744.457031 L 2819.105469 744.457031 C 2865.148438 744.457031 2902.84375 782.15625 2902.84375 828.210938 L 2902.84375 809.609375 C 2902.84375 763.558594 2865.148438 725.855469 2819.105469 725.855469 L 455.894531 725.855469 C 409.851562 725.855469 372.15625 763.558594 372.15625 809.609375 L 372.15625 828.210938 C 372.15625 782.15625 409.851562 744.457031 455.894531 744.457031 Z M 455.894531 744.457031 "/>
</g>
<mask id="mask9">
  <g filter="url(#alpha)">
<rect x="0" y="0" width="3275" height="2680" style="fill:rgb(0%,0%,0%);fill-opacity:0.2;stroke:none;"/>
  </g>
</mask>
<clipPath id="clip10">
  <rect x="0" y="0" width="3275" height="2680"/>
</clipPath>
<g id="surface32" clip-path="url(#clip10)">
<path style=" stroke:none;fill-rule:nonzero;fill:rgb(10.196078%,13.72549%,49.411765%);fill-opacity:1;" d="M 1116.464844 1787.039062 L 1116.464844 1805.640625 L 1352.785156 1805.640625 C 1354.535156 1799.539062 1356.035156 1793.339844 1357.285156 1787.039062 Z M 1116.464844 1787.039062 "/>
<path style=" stroke:none;fill-rule:nonzero;fill:rgb(10.196078%,13.72549%,49.411765%);fill-opacity:1;" d="M 1116.464844 2140.25 C 872.945312 2140.25 675.066406 1945.292969 670.117188 1702.886719 C 670.066406 1705.984375 669.867188 1709.085938 669.867188 1712.1875 C 669.867188 1958.894531 869.792969 2158.851562 1116.464844 2158.851562 C 1374.382812 2158.851562 1544.0625 1977.496094 1544.0625 1722.335938 C 1544.0625 1720.285156 1543.8125 1718.386719 1543.8125 1716.335938 C 1538.261719 1964.84375 1370.132812 2140.25 1116.464844 2140.25 Z M 1287.792969 1490.730469 C 1241.25 1446.429688 1182.253906 1423.726562 1116.464844 1423.726562 C 970.28125 1423.726562 851.746094 1547.382812 851.746094 1693.585938 C 851.746094 1696.734375 852.097656 1699.785156 852.195312 1702.886719 C 857.144531 1560.78125 973.382812 1442.328125 1116.464844 1442.328125 C 1182.304688 1442.328125 1241.25 1464.980469 1287.792969 1509.332031 L 1287.792969 1509.429688 L 1424.527344 1372.675781 C 1421.328125 1369.675781 1417.777344 1367.027344 1414.476562 1364.125 L 1287.84375 1490.828125 Z M 1287.792969 1490.730469 "/>
</g>
<mask id="mask10">
  <g filter="url(#alpha)">
<rect x="0" y="0" width="3275" height="2680" style="fill:rgb(0%,0%,0%);fill-opacity:0.2;stroke:none;"/>
  </g>
</mask>
<clipPath id="clip11">
  <rect x="0" y="0" width="3275" height="2680"/>
</clipPath>
<g id="surface35" clip-path="url(#clip11)">
<path style=" stroke:none;fill-rule:nonzero;fill:rgb(10.196078%,13.72549%,49.411765%);fill-opacity:1;" d="M 2488.796875 1414.425781 L 2488.796875 1395.828125 C 2488.796875 1416.378906 2472.148438 1433.027344 2451.601562 1433.027344 L 1744.488281 1433.027344 L 1744.488281 1451.628906 L 2451.601562 1451.628906 C 2472.148438 1451.679688 2488.796875 1435.027344 2488.796875 1414.425781 Z M 2451.601562 2140.25 L 1744.488281 2140.25 L 1744.488281 2158.851562 L 2451.601562 2158.851562 C 2472.148438 2158.851562 2488.796875 2142.199219 2488.796875 2121.648438 L 2488.796875 2103.046875 C 2488.796875 2123.597656 2472.148438 2140.25 2451.601562 2140.25 Z M 2563.238281 1786.636719 L 1744.488281 1786.636719 L 1744.488281 1805.238281 L 2563.238281 1805.238281 C 2583.785156 1805.238281 2600.433594 1788.589844 2600.433594 1768.039062 L 2600.433594 1749.4375 C 2600.433594 1769.988281 2583.785156 1786.636719 2563.238281 1786.636719 Z M 2563.238281 1786.636719 "/>
</g>
<radialGradient id="radial0" gradientUnits="userSpaceOnUse" cx="1476.404" cy="434.236" fx="1476.404" fy="434.236" r="6370.563" gradientTransform="matrix(0.499939,0,0,0.500015,0,0.0340913)">
<stop offset="0" style="stop-color:rgb(100%,100%,100%);stop-opacity:0.101961;"/>
<stop offset="1" style="stop-color:rgb(100%,100%,100%);stop-opacity:0;"/>
</radialGradient>
</defs>
<g id="surface1">
<path style=" stroke:none;fill-rule:nonzero;fill:rgb(4.705882%,61.568627%,34.509804%);fill-opacity:1;" d="M 2605.082031 1817.941406 C 2605.082031 1863.539062 2567.488281 1900.890625 2521.542969 1900.890625 L 753.40625 1900.890625 C 707.464844 1900.890625 669.867188 1863.539062 669.867188 1817.941406 L 669.867188 82.988281 C 669.867188 37.386719 707.464844 0.0351562 753.40625 0.0351562 L 2521.59375 0.0351562 C 2567.535156 0.0351562 2605.132812 37.386719 2605.132812 82.988281 L 2605.132812 1817.941406 Z M 2605.082031 1817.941406 "/>
<use xlink:href="#surface5" mask="url(#mask0)"/>
<use xlink:href="#surface8" mask="url(#mask1)"/>
<use xlink:href="#surface11" mask="url(#mask2)"/>
<path style=" stroke:none;fill-rule:nonzero;fill:rgb(91.764706%,26.27451%,20.784314%);fill-opacity:1;" d="M 1098.964844 1764.636719 C 1087.015625 1809.1875 1110.863281 1854.640625 1151.960938 1865.640625 L 2789.660156 2306.15625 C 2830.753906 2317.15625 2874.148438 2289.703125 2886.046875 2245.152344 L 3271.851562 805.109375 C 3283.800781 760.558594 3259.953125 715.105469 3218.855469 704.105469 L 1581.15625 263.59375 C 1540.0625 252.59375 1496.667969 280.042969 1484.769531 324.59375 Z M 1098.964844 1764.636719 "/>
<use xlink:href="#surface14" mask="url(#mask3)"/>
<use xlink:href="#surface17" mask="url(#mask4)"/>
<use xlink:href="#surface20" mask="url(#mask5)"/>
<path style=" stroke:none;fill-rule:nonzero;fill:rgb(100%,75.686275%,2.745098%);fill-opacity:1;" d="M 2388.757812 1587.28125 C 2404.507812 1630.632812 2384.707031 1677.984375 2344.761719 1692.535156 L 616.625 2321.605469 C 576.628906 2336.15625 531.035156 2312.605469 515.285156 2269.253906 L 5.449219 868.3125 C -10.296875 824.960938 9.5 777.609375 49.445312 763.058594 L 1777.582031 133.988281 C 1817.578125 119.4375 1863.171875 142.988281 1878.921875 186.339844 Z M 2388.757812 1587.28125 "/>
<use xlink:href="#surface23" mask="url(#mask6)"/>
<path style=" stroke:none;fill-rule:nonzero;fill:rgb(25.882353%,52.156863%,95.686275%);fill-opacity:1;" d="M 2902.84375 2596.214844 C 2902.84375 2642.265625 2865.148438 2679.964844 2819.105469 2679.964844 L 455.894531 2679.964844 C 409.851562 2679.964844 372.15625 2642.265625 372.15625 2596.214844 L 372.15625 809.609375 C 372.15625 763.558594 409.851562 725.855469 455.894531 725.855469 L 2819.105469 725.855469 C 2865.148438 725.855469 2902.84375 763.558594 2902.84375 809.609375 Z M 2902.84375 2596.214844 "/>
<path style=" stroke:none;fill-rule:nonzero;fill:rgb(100%,100%,100%);fill-opacity:1;" d="M 2451.601562 1433.078125 L 1744.488281 1433.078125 L 1744.488281 1246.972656 L 2451.601562 1246.972656 C 2472.148438 1246.972656 2488.796875 1263.621094 2488.796875 1284.171875 L 2488.796875 1395.828125 C 2488.796875 1416.378906 2472.148438 1433.078125 2451.601562 1433.078125 Z M 2451.601562 2140.25 L 1744.488281 2140.25 L 1744.488281 1954.144531 L 2451.601562 1954.144531 C 2472.148438 1954.144531 2488.796875 1970.792969 2488.796875 1991.34375 L 2488.796875 2103 C 2488.796875 2123.597656 2472.148438 2140.25 2451.601562 2140.25 Z M 2563.238281 1786.636719 L 1744.488281 1786.636719 L 1744.488281 1600.53125 L 2563.238281 1600.53125 C 2583.785156 1600.53125 2600.433594 1617.183594 2600.433594 1637.734375 L 2600.433594 1749.386719 C 2600.433594 1769.988281 2583.785156 1786.636719 2563.238281 1786.636719 Z M 2563.238281 1786.636719 "/>
<use xlink:href="#surface26" mask="url(#mask7)"/>
<use xlink:href="#surface29" mask="url(#mask8)"/>
<path style=" stroke:none;fill-rule:nonzero;fill:rgb(100%,100%,100%);fill-opacity:1;" d="M 1111.8125 1619.183594 L 1111.8125 1787.039062 L 1352.636719 1787.039062 C 1332.738281 1889.292969 1242.847656 1963.445312 1111.8125 1963.445312 C 965.632812 1963.445312 847.097656 1839.789062 847.097656 1693.585938 C 847.097656 1547.382812 965.632812 1423.726562 1111.8125 1423.726562 C 1177.65625 1423.726562 1236.597656 1446.378906 1283.144531 1490.730469 L 1283.144531 1490.828125 L 1410.578125 1363.375 C 1333.1875 1291.222656 1232.25 1246.972656 1111.765625 1246.972656 C 865.144531 1246.972656 665.167969 1446.929688 665.167969 1693.636719 C 665.167969 1940.34375 865.09375 2140.300781 1111.765625 2140.300781 C 1369.683594 2140.300781 1539.363281 1958.945312 1539.363281 1703.785156 C 1539.363281 1674.535156 1536.664062 1646.335938 1532.3125 1619.183594 Z M 1111.8125 1619.183594 "/>
<use xlink:href="#surface32" mask="url(#mask9)"/>
<use xlink:href="#surface35" mask="url(#mask10)"/>
<path style=" stroke:none;fill-rule:nonzero;fill:url(#radial0);" d="M 3218.90625 704.105469 L 2605.132812 539 L 2605.132812 82.988281 C 2605.132812 37.386719 2567.535156 0.0351562 2521.59375 0.0351562 L 753.40625 0.0351562 C 707.464844 0.0351562 669.867188 37.386719 669.867188 82.988281 L 669.867188 537.199219 L 49.445312 763.058594 C 9.449219 777.609375 -10.347656 824.960938 5.449219 868.3125 L 372.15625 1876.042969 L 372.15625 2596.214844 C 372.15625 2642.265625 409.851562 2679.964844 455.894531 2679.964844 L 2819.105469 2679.964844 C 2865.148438 2679.964844 2902.84375 2642.265625 2902.84375 2596.214844 L 2902.84375 2182.75 L 3271.949219 805.109375 C 3283.847656 760.558594 3260 715.105469 3218.90625 704.105469 Z M 3218.90625 704.105469 "/>
</g>
</svg>
