<?xml version="1.0" encoding="UTF-8"?>
<svg xmlns="http://www.w3.org/2000/svg" xmlns:xlink="http://www.w3.org/1999/xlink" width="0px" height="px" viewBox="0 0 2241 2241" version="1.1">
<defs>
<radialGradient id="radial0" gradientUnits="userSpaceOnUse" cx="1034.8246" cy="4082.8464" fx="1034.8246" fy="4082.8464" r="25.2971" gradientTransform="matrix(88.003299,0,0,-87.983668,-90729.54084,359562.579637)">
<stop offset="0" style="stop-color:rgb(100%,100%,100%);stop-opacity:0.101961;"/>
<stop offset="1" style="stop-color:rgb(100%,100%,100%);stop-opacity:0;"/>
</radialGradient>
</defs>
<g id="surface1">
<path style=" stroke:none;fill-rule:nonzero;fill:rgb(14.509804%,37.254902%,85.882353%);fill-opacity:1;" d="M 772.765625 1353.996094 C 390.777344 848.738281 -1.398438 1232.679688 100.972656 1585.8125 C 358.472656 2148.867188 1023.765625 2396.613281 1586.945312 2139.171875 C 1781.066406 2050.4375 1945.820312 1908.144531 2061.847656 1729.023438 C 1766.570312 2005.523438 1230.386719 1959.3125 772.765625 1353.996094 Z M 772.765625 1353.996094 "/>
<path style=" stroke:none;fill-rule:nonzero;fill:rgb(25.882353%,52.156863%,95.686275%);fill-opacity:1;" d="M 1114.261719 1006.082031 C 588.902344 209.433594 0.00390625 633.980469 0.00390625 1120.652344 C -0.210938 1281.832031 34.542969 1441.140625 101.867188 1587.59375 C 31.960938 1257.757812 411.019531 1003.410156 763.980469 1476.839844 C 1276.480469 2164.265625 1779.429688 2043.332031 2060.828125 1730.550781 C 2151.203125 1591.855469 2209.570312 1434.789062 2231.707031 1270.742188 L 2231.707031 1272.90625 C 2110.867188 1647.679688 1577.613281 1708.65625 1114.261719 1006.082031 Z M 1114.261719 1006.082031 "/>
<path style=" stroke:none;fill-rule:nonzero;fill:rgb(56.862745%,74.901961%,100%);fill-opacity:1;" d="M 1474.347656 649.640625 C 1084.210938 6.132812 589.535156 64.054688 254.660156 408.914062 C 89.585938 609.34375 -0.460938 861.019531 0.00390625 1120.652344 C 35.019531 649.640625 604.816406 321.839844 1120.5 1120.652344 C 1578.886719 1831.628906 2149.960938 1646.40625 2231.195312 1274.941406 L 2231.195312 1271.378906 C 2238.304688 1220.78125 2241.328125 1169.699219 2240.234375 1118.617188 L 2240.234375 1067.695312 C 2041.730469 1209.765625 1780.703125 1154.898438 1474.347656 649.640625 Z M 1474.347656 649.640625 "/>
<path style=" stroke:none;fill-rule:nonzero;fill:rgb(76.862745%,88.235294%,100%);fill-opacity:1;" d="M 1477.023438 764.210938 C 1834.308594 1338.464844 2142.320312 1191.5625 2241 1068.714844 C 2237.011719 982.875 2223.125 897.785156 2199.617188 815.132812 C 2033.070312 818.566406 1994.234375 790.816406 1830.363281 541.308594 C 1579.90625 157.621094 1264.382812 -101.4375 713.046875 76.785156 C 534.414062 146.832031 376.632812 261.328125 254.660156 409.421875 C 633.464844 60.871094 1098.21875 155.457031 1477.023438 764.210938 Z M 1477.023438 764.210938 "/>
<path style=" stroke:none;fill-rule:nonzero;fill:rgb(96.078431%,96.078431%,96.078431%);fill-opacity:1;" d="M 1805.914062 590.699219 C 1969.277344 840.589844 2068.722656 853.320312 2199.617188 815.132812 C 2029.902344 219.132812 1409.058594 -126.464844 812.929688 43.214844 C 779.125 52.832031 745.796875 64.039062 713.046875 76.785156 C 1205.558594 -78.523438 1554.820312 206.886719 1805.914062 590.699219 Z M 1805.914062 590.699219 "/>
<path style=" stroke:none;fill-rule:nonzero;fill:url(#radial0);" d="M 2241 1120.652344 C 2241 1739.351562 1739.335938 2240.902344 1120.5 2240.902344 C 501.667969 2240.902344 0 1739.351562 0 1120.652344 C 0 501.957031 501.667969 0.40625 1120.5 0.40625 C 1739.335938 0.40625 2241 501.957031 2241 1120.652344 Z M 2241 1120.652344 "/>
<path style=" stroke:none;fill-rule:nonzero;fill:rgb(100%,100%,100%);fill-opacity:0.2;" d="M 1120.5 13.136719 C 1736.851562 13.136719 2237.5 510.804688 2241 1127.019531 L 2241 1120.652344 C 2241 501.957031 1739.335938 0.40625 1120.5 0.40625 C 501.667969 0.40625 0.00390625 501.957031 0.00390625 1120.652344 L 0.00390625 1127.019531 C 3.503906 510.804688 504.148438 13.136719 1120.5 13.136719 Z M 1120.5 13.136719 "/>
<path style=" stroke:none;fill-rule:nonzero;fill:rgb(10.196078%,13.72549%,49.411765%);fill-opacity:0.2;" d="M 1120.5 2228.171875 C 504.148438 2228.171875 3.503906 1730.503906 0.00390625 1114.289062 L 0.00390625 1120.652344 C 0.00390625 1739.351562 501.667969 2240.902344 1120.5 2240.902344 C 1739.335938 2240.902344 2241 1739.351562 2241 1120.652344 L 2241 1114.289062 C 2237.5 1730.503906 1736.851562 2228.171875 1120.5 2228.171875 Z M 1120.5 2228.171875 "/>
</g>
</svg>
