<?xml version="1.0" encoding="UTF-8"?>
<svg xmlns="http://www.w3.org/2000/svg" xmlns:xlink="http://www.w3.org/1999/xlink" width="0px" height="px" viewBox="0 0 953 1250" version="1.1">
<defs>
<linearGradient id="linear0" gradientUnits="userSpaceOnUse" x1="122.5479" y1="1635.2429" x2="122.5479" y2="1634.3186" gradientTransform="matrix(333.509979,0,0,-327.37795,-40084.78164,535701.875)">
<stop offset="0" style="stop-color:rgb(19.215686%,10.588235%,57.254902%);stop-opacity:0.2;"/>
<stop offset="1" style="stop-color:rgb(19.215686%,10.588235%,57.254902%);stop-opacity:0.0196078;"/>
</linearGradient>
<radialGradient id="radial0" gradientUnits="userSpaceOnUse" cx="122.6324" cy="1634.4275" fx="122.6324" fy="1634.4275" r="12.899" gradientTransform="matrix(952.882688,0,0,-952.375,-116824.094359,1556621.25)">
<stop offset="0" style="stop-color:rgb(100%,100%,100%);stop-opacity:0.101961;"/>
<stop offset="1" style="stop-color:rgb(100%,100%,100%);stop-opacity:0;"/>
</radialGradient>
</defs>
<g id="surface1">
<path style=" stroke:none;fill-rule:nonzero;fill:rgb(40.392157%,22.745098%,71.764706%);fill-opacity:1;" d="M 595.613281 0 L 89.398438 0 C 41.722656 0 0.0507812 41.648438 0.0507812 89.300781 L 0.0507812 1160.75 C 0.0507812 1208.351562 41.722656 1250.050781 89.398438 1250.050781 L 863.601562 1250.050781 C 911.226562 1250.050781 952.949219 1208.398438 952.949219 1160.75 L 952.949219 357.148438 L 744.492188 208.351562 Z M 595.613281 0 "/>
<path style=" stroke:none;fill-rule:nonzero;fill:rgb(94.509804%,94.509804%,94.509804%);fill-opacity:1;" d="M 357.386719 922.601562 L 714.726562 922.601562 L 714.726562 863.101562 L 357.386719 863.101562 Z M 357.386719 535.699219 L 357.386719 595.199219 L 714.726562 595.199219 L 714.726562 535.699219 Z M 303.757812 565.5 C 303.757812 589.300781 285.898438 613.101562 256.132812 613.101562 C 226.367188 613.101562 208.507812 595.25 208.507812 565.5 C 208.507812 535.75 226.367188 517.898438 256.132812 517.898438 C 285.898438 517.898438 303.757812 541.648438 303.757812 565.5 Z M 303.757812 732.148438 C 303.757812 755.949219 285.898438 779.75 256.132812 779.75 C 226.367188 779.75 208.507812 761.898438 208.507812 732.148438 C 208.507812 702.398438 226.367188 684.550781 256.132812 684.550781 C 285.898438 684.550781 303.757812 708.351562 303.757812 732.148438 Z M 303.757812 892.851562 C 303.757812 916.648438 285.898438 940.449219 256.132812 940.449219 C 226.367188 940.449219 208.507812 922.601562 208.507812 892.851562 C 208.507812 863.101562 226.367188 845.25 256.132812 845.25 C 285.898438 845.25 303.757812 869.050781 303.757812 892.851562 Z M 357.386719 773.800781 L 714.726562 773.800781 L 714.726562 714.25 L 357.386719 714.25 Z M 357.386719 773.800781 "/>
<path style=" stroke:none;fill-rule:nonzero;fill:url(#linear0);" d="M 619.425781 333.351562 L 952.949219 660.75 L 952.949219 357.148438 Z M 619.425781 333.351562 "/>
<path style=" stroke:none;fill-rule:nonzero;fill:rgb(70.196078%,61.568627%,85.882353%);fill-opacity:1;" d="M 595.613281 0 L 595.613281 267.851562 C 595.613281 315.449219 637.285156 357.148438 684.960938 357.148438 L 952.949219 357.148438 Z M 595.613281 0 "/>
<path style=" stroke:none;fill-rule:nonzero;fill:rgb(100%,100%,100%);fill-opacity:0.2;" d="M 89.398438 0 C 41.722656 0 0.0507812 41.648438 0.0507812 89.300781 L 0.0507812 95.25 C 0.0507812 47.601562 41.722656 5.949219 89.398438 5.949219 L 595.613281 5.949219 L 595.613281 0 Z M 89.398438 0 "/>
<path style=" stroke:none;fill-rule:nonzero;fill:rgb(19.215686%,10.588235%,57.254902%);fill-opacity:0.2;" d="M 863.601562 1244.050781 L 89.398438 1244.050781 C 41.722656 1244.050781 0.0507812 1202.398438 0.0507812 1154.75 L 0.0507812 1160.699219 C 0.0507812 1208.300781 41.722656 1250 89.398438 1250 L 863.601562 1250 C 911.226562 1250 952.949219 1208.351562 952.949219 1160.699219 L 952.949219 1154.75 C 952.949219 1202.398438 911.226562 1244.050781 863.601562 1244.050781 Z M 863.601562 1244.050781 "/>
<path style=" stroke:none;fill-rule:nonzero;fill:rgb(19.215686%,10.588235%,57.254902%);fill-opacity:0.101961;" d="M 684.910156 357.148438 C 637.285156 357.148438 595.5625 315.5 595.5625 267.851562 L 595.5625 273.800781 C 595.5625 321.398438 637.234375 363.101562 684.910156 363.101562 L 952.898438 363.101562 L 952.898438 357.148438 Z M 684.910156 357.148438 "/>
<path style=" stroke:none;fill-rule:nonzero;fill:url(#radial0);" d="M 595.613281 0 L 89.398438 0 C 41.722656 0 0.0507812 41.648438 0.0507812 89.300781 L 0.0507812 1160.75 C 0.0507812 1208.351562 41.722656 1250.050781 89.398438 1250.050781 L 863.601562 1250.050781 C 911.226562 1250.050781 952.949219 1208.398438 952.949219 1160.75 L 952.949219 357.148438 Z M 595.613281 0 "/>
</g>
</svg>
