<?xml version="1.0" encoding="UTF-8"?>
<svg xmlns="http://www.w3.org/2000/svg" xmlns:xlink="http://www.w3.org/1999/xlink" width="0px" height="px" viewBox="0 0 250 250" version="1.1">
<g id="surface1">
<path style=" stroke:none;fill-rule:nonzero;fill:rgb(10.196078%,45.098039%,90.980392%);fill-opacity:1;" d="M 250 125 C 250 194.035156 194.035156 250 125 250 C 55.964844 250 0 194.035156 0 125 C 0 55.964844 55.964844 0 125 0 C 194.035156 0 250 55.964844 250 125 Z M 250 125 "/>
<path style=" stroke:none;fill-rule:nonzero;fill:rgb(9.411765%,35.294118%,73.72549%);fill-opacity:1;" d="M 166.199219 187.5 L 85.25 187.5 C 75.449219 187.5 66.800781 181.601562 66.800781 171.898438 L 66.800781 179 C 66.800781 188.699219 75.449219 196.050781 85.25 196.050781 L 166.199219 196.050781 C 176 196.050781 184.648438 188.699219 184.648438 179 L 184.648438 171.898438 C 184.648438 181.601562 176 187.5 166.199219 187.5 Z M 166.199219 187.5 "/>
<path style=" stroke:none;fill-rule:nonzero;fill:rgb(9.411765%,35.294118%,73.72549%);fill-opacity:1;" d="M 125 113.648438 C 110.351562 113.601562 98.800781 103.449219 98 89.5 L 98 95.199219 C 98 109.648438 110.101562 122.199219 125 122.199219 C 139.898438 122.199219 152 109.648438 152 95.199219 L 152 89.5 C 150.851562 103.550781 139.648438 113.699219 125 113.648438 Z M 125 113.648438 "/>
<path style=" stroke:none;fill-rule:nonzero;fill:rgb(100%,100%,100%);fill-opacity:1;" d="M 125 130.699219 C 96.5 130.699219 66.75 144.601562 66.75 163.351562 L 66.75 171.851562 C 66.75 181.550781 74.699219 188.898438 84.5 188.898438 L 166.851562 188.898438 C 176.648438 188.898438 184.601562 181.550781 184.601562 171.851562 L 184.601562 163.351562 C 184.648438 144.550781 153.5 130.699219 125 130.699219 Z M 125 130.699219 "/>
<path style=" stroke:none;fill-rule:nonzero;fill:rgb(100%,100%,100%);fill-opacity:1;" d="M 152 88.050781 C 152 102.960938 139.910156 115.050781 125 115.050781 C 110.089844 115.050781 98 102.960938 98 88.050781 C 98 73.136719 110.089844 61.050781 125 61.050781 C 139.910156 61.050781 152 73.136719 152 88.050781 Z M 152 88.050781 "/>
</g>
</svg>
